<?xml version="1.0" standalone="no"?>
<!DOCTYPE svg PUBLIC "-//W3C//DTD SVG 1.1//EN" "http://www.w3.org/Graphics/SVG/1.1/DTD/svg11.dtd" >
<svg>
<metadata>
Created by FontForge 20090914 at Sun May 15 09:11:12 2016
 By www-data
Designed by: Solaiman Karim &#60;solaiman@ekushey.org&#62; This font is free software; you can redistribute it and/or modify it under the terms of the GNU General Public License as published by the Free Software Foundation; either version 2 of the License, or (at your option) any later version. This font is distributed in the hope that it will be useful, but WITHOUT ANY WARRANTY; without even the implied warranty of MERCHANTABILITY or FITNESS FOR A PARTICULAR PURPOSE. See the GNU General Public License (http://www.gnu.org/licenses/gpl.txt), in the COPYING file for more details.

As a special exception, if you create a document which uses this font, and embed this font or unaltered portions of this font into the document, this font does not by itself cause the resulting document to be covered by the GNU General Public License. This exception does not however invalidate any other reasons why the document might be covered by the GNU General Public License. If you modify this font, you may extend this exception to your version of the font, but you are not obligated to do so. If you do not wish to do so, delete this exception statement from your version.
</metadata>
<defs>
<font id="SolaimanLipi" horiz-adv-x="2" >
  <font-face 
    font-family="SolaimanLipi"
    font-weight="400"
    font-stretch="normal"
    units-per-em="2048"
    panose-1="2 0 5 0 2 0 0 2 0 4"
    ascent="1638"
    descent="-410"
    bbox="-1132 -889 2286 1767"
    underline-thickness="20"
    underline-position="-123"
    unicode-range="U+000D-U+25CC"
  />
<missing-glyph horiz-adv-x="1767" 
d="M1659 1767v-1767h-1550v1767h1550zM217 1659v-1550h1333v1550h-1333z" />
    <glyph glyph-name=".notdef" horiz-adv-x="1767" 
d="M1659 1767v-1767h-1550v1767h1550zM217 1659v-1550h1333v1550h-1333z" />
    <glyph glyph-name="nonmarkingreturn" unicode="&#xd;" horiz-adv-x="516" 
 />
    <glyph glyph-name="space" unicode=" " horiz-adv-x="516" 
 />
    <glyph glyph-name="exclam" unicode="!" horiz-adv-x="668" 
d="M360 96h-30.001l-86 760l-4 76c0 38 9.66699 69 29 93s45 36 77 36c13.333 0 26.333 -2.83301 39 -8.5s23.834 -14.167 33.501 -25.5s17.5 -25.333 23.5 -42s9 -35.667 9 -57v-6l-2 -66zM448.999 -168c0 -14.667 -5.16699 -30.9971 -15.5 -48.9971
s-25.833 -31.667 -46.5 -41l-43 -8c-15.333 0 -29.333 2.66699 -42 8s-23.667 12.5 -33 21.5s-16.5 19.333 -21.5 31s-7.5 24.167 -7.5 37.5c0 14 2.66699 27.167 8 39.5s12.666 23.166 21.999 32.499s20.333 16.666 33 21.999s26.334 8 41.001 8c12 0 24.333 -2.5 37 -7.5
s24 -12 34 -21s18.167 -19.833 24.5 -32.5s9.5 -26.334 9.5 -41.001z" />
    <glyph glyph-name="quotedbl" unicode="&#x22;" horiz-adv-x="711" 
d="M121 1116c0 18.667 6.99902 36 20.999 52s32.333 24 55 24s40.834 -8 54.501 -24s20.5 -33.333 20.5 -52l-57 -342h-35zM435.999 1116c0 9.33301 1.83301 18.5 5.5 27.5s8.66699 17.167 15 24.5s14.166 13.166 23.499 17.499s20 6.5 32 6.5
c10.667 0 20.5 -2.16699 29.5 -6.5s16.833 -10.166 23.5 -17.499s11.834 -15.5 15.501 -24.5s5.5 -18.167 5.5 -27.5l-58 -342h-34z" />
    <glyph glyph-name="numbersign" unicode="#" horiz-adv-x="961" 
d="M580 -27h-70l84 430h-324l-90 -430h-71l86 430h-160v74h174l63 326h-237v71h256l88 429h72l-84 -429h323l90 429h74l-90 -429h162v-73h-174l-66 -326h240v-72h-254zM285 477h323l70 324h-326z" />
    <glyph glyph-name="percent" unicode="%" horiz-adv-x="1280" 
d="M799 231c0 44.667 6.33398 83.8359 19.001 117.503s29 61.667 49 84s42.5 39.166 67.5 50.499s50.167 17 75.5 17c70.667 -8.66699 124.5 -35.167 161.5 -79.5s55.5 -107.5 55.5 -189.5c0 -45.333 -5.5 -84.833 -16.5 -118.5s-26.167 -62 -45.5 -85
s-42.166 -40.167 -68.499 -51.5s-54.5 -17 -84.5 -17c-12.667 0 -26.834 0.833008 -42.501 2.5s-31.667 6.66699 -48 15s-32.833 21.166 -49.5 38.499s-32.334 41.666 -47.001 72.999c-11.333 23.333 -18.5 46 -21.5 68s-4.5 47 -4.5 75zM217.001 -28.998l741 1073l103 -12
l-737 -1061h-107zM481.001 764.002c0 -42.667 -5.83301 -80.834 -17.5 -114.501s-27.334 -62.167 -47.001 -85.5s-42.167 -41.166 -67.5 -53.499s-51.666 -18.5 -78.999 -18.5c-29.333 0 -57 6.5 -83 19.5s-48.667 31.5 -68 55.5s-34.833 53 -46.5 87s-17.5 72 -17.5 114
c0 32.667 4.16699 64.834 12.5 96.501s21.166 60.167 38.499 85.5s39.5 46.166 66.5 62.499s59.5 25.5 97.5 27.5c32 0 60.833 -7.5 86.5 -22.5s47.834 -35.333 66.501 -61s33 -55.167 43 -88.5s15 -68 15 -104zM1114 229.002
c-2.66699 34.667 -4.66895 64.501 -6.00195 89.501s-4.66602 46.5 -9.99902 64.5s-14.5 33.167 -27.5 45.5s-32.5 23.166 -58.5 32.499c-26 -8 -45.167 -18.333 -57.5 -31s-21.166 -28.5 -26.499 -47.5s-8.5 -41.5 -9.5 -67.5s-2.83301 -56 -5.5 -90
c0 -38 1.5 -69.833 4.5 -95.5s7.16699 -46.5 12.5 -62.5s11.833 -28.5 19.5 -37.5s16.167 -16.167 25.5 -21.5l33 -8c30.667 0 56 18.5 76 55.5s30 94.833 30 173.5zM161.999 735.003c0 -26 1.99902 -51 5.99902 -75s10.5 -45 19.5 -63s20.667 -32.5 35 -43.5
s31.5 -16.5 51.5 -16.5c16.667 2 31 9.66699 43 23s21.833 30.333 29.5 51s13.334 44 17.001 70s5.5 53 5.5 81c0 30 -2.16699 59.333 -6.5 88s-10.5 54.5 -18.5 77.5s-17.667 41.5 -29 55.5s-24.333 21 -39 21h-8c-14.667 0 -28.5 -8 -41.5 -24
s-24.167 -36.833 -33.5 -62.5s-16.833 -54.5 -22.5 -86.5s-8.5 -64 -8.5 -96z" />
    <glyph glyph-name="ampersand" unicode="&#x26;" horiz-adv-x="1141" 
d="M1063 25c-54.667 -19.333 -109.998 -29.0039 -165.998 -29.0039c-44 0 -86.5 6.5 -127.5 19.5s-78.5 34.5 -112.5 64.5c-20 -18.667 -42.5 -34.167 -67.5 -46.5s-51.167 -22.666 -78.5 -30.999s-55.333 -15 -84 -20s-56.334 -9.5 -83.001 -13.5
c-33.333 0 -66.5 5.5 -99.5 16.5s-62.5 28.333 -88.5 52s-47.167 54.167 -63.5 91.5s-24.5 82.333 -24.5 135c0 28.667 6.83301 56.834 20.5 84.501s31.167 54.167 52.5 79.5s45 49.5 71 72.5s51.667 44.5 77 64.5c-16.667 37.333 -29 74.166 -37 110.499
s-12 77.5 -12 123.5c0 2 0.666992 12 2 30s4.5 39.833 9.5 65.5s12.667 53 23 82s24.333 55.833 42 80.5s39.667 45.167 66 61.5s58.5 24.5 96.5 24.5c30 0 57 -7.16699 81 -21.5s44.333 -33.166 61 -56.499s29.334 -49.5 38.001 -78.5s13 -58.167 13 -87.5
c0 -20 -2.16699 -40.5 -6.5 -61.5s-11.666 -42.833 -21.999 -65.5s-24.333 -46.5 -42 -71.5s-39.834 -51.5 -66.501 -79.5l-93 -80c26 -62.667 57 -120.167 93 -172.5s81 -101.5 135 -147.5c30.667 30.667 58.167 62.334 82.5 95.001s46.5 66.334 66.5 101.001
s38.333 70.5 55 107.5s32.667 75.167 48 114.5l98 -49c-10 -40.667 -24.5 -82 -43.5 -124s-40.833 -82.5 -65.5 -121.5s-50.834 -75.5 -78.501 -109.5s-55.167 -63.333 -82.5 -88c24.667 -15.333 51.167 -27 79.5 -35s56.833 -12 85.5 -12
c53.333 0 102.666 13.667 147.999 41v-116v0zM567.002 869.996c-0.666992 18.667 -3.66797 37.001 -9.00098 55.001s-12.5 33.833 -21.5 47.5s-19.667 24.667 -32 33s-25.5 12.5 -39.5 12.5s-28.167 -3.33301 -42.5 -10s-27.333 -16.334 -39 -29.001
s-21.167 -28.167 -28.5 -46.5s-11 -39.166 -11 -62.499c0.666992 -12.667 1.16699 -24.167 1.5 -34.5s0.5 -19.833 0.5 -28.5c0 -13.333 0.5 -26 1.5 -38s3.16699 -25.167 6.5 -39.5s8 -30.833 14 -49.5s14.333 -41.334 25 -68.001
c62.667 58.667 107.334 109.167 134.001 151.5s40 77.833 40 106.5zM578.001 146.997c-18.667 20.667 -39.501 45.832 -62.501 75.499s-45.5 60.334 -67.5 92.001s-42.167 62.334 -60.5 92.001s-31.5 55.167 -39.5 76.5c-15.333 -16 -32.5 -32.167 -51.5 -48.5
s-37 -33.5 -54 -51.5s-31.333 -37.5 -43 -58.5s-17.5 -43.833 -17.5 -68.5c0 -25.333 4.33301 -48.833 13 -70.5s20.834 -40.5 36.501 -56.5s34 -28.5 55 -37.5s44.167 -13.5 69.5 -13.5c32 0 66.5 5.66699 103.5 17s76.5 28.666 118.5 51.999z" />
    <glyph glyph-name="quotesingle" unicode="'" horiz-adv-x="313" 
d="M139 774l-23.499 145.001l-16 98c-4.33301 26 -7.83301 46 -10.5 60s-4.5 24.5 -5.5 31.5s-1.66699 11.167 -2 12.5s-0.5 2.33301 -0.5 3c0 8.66699 2.16699 17.167 6.5 25.5s10 15.666 17 21.999s15 11.333 24 15s18.167 5.5 27.5 5.5s18.666 -1.83301 27.999 -5.5
s17.5 -8.66699 24.5 -15s12.667 -13.5 17 -21.5s6.5 -16.333 6.5 -25c0 -0.666992 -0.166992 -1.66699 -0.5 -3s-1 -5.5 -2 -12.5s-2.83301 -17.667 -5.5 -32s-6.16699 -34.333 -10.5 -60l-16 -98l-23.5 -145.5h-35v0z" />
    <glyph glyph-name="parenleft" unicode="(" horiz-adv-x="639" 
d="M598 -412c-84.667 40.667 -159.335 92.1689 -224.002 154.502s-119 131.666 -163 207.999s-77.167 157.833 -99.5 244.5s-33.5 174.667 -33.5 264c0 88.667 11.5 177.5 34.5 266.5s56.667 172.833 101 251.5s98.833 149.167 163.5 211.5s138.334 111.166 221.001 146.499
v-35c-37.333 -19.333 -73.333 -44.166 -108 -74.499s-66.667 -69.833 -96 -118.5s-55.166 -108.334 -77.499 -179.001s-39.166 -156 -50.499 -256l-10 -187c0 -96.667 4.5 -181.834 13.5 -255.501s20.167 -137.167 33.5 -190.5s27.666 -97.166 42.999 -131.499
s29 -60.166 41 -77.499c26.667 -44 58 -83.333 94 -118s75 -66.334 117 -95.001v-29v0z" />
    <glyph glyph-name="parenright" unicode=")" horiz-adv-x="639" 
d="M559 461c0 -89.333 -11 -178.167 -33 -266.5s-54.833 -171.5 -98.5 -249.5s-97.667 -148 -162 -210s-138.5 -111 -222.5 -147v29c42.667 20 81.167 46.5 115.5 79.5s65 74.667 92 125s50.667 110.5 71 180.5s37.5 152 51.5 246c4 42 6.66699 75.167 8 99.5
s2 44.166 2 59.499v27c0 52 -2.33301 105.833 -7 161.5s-12.167 111.334 -22.5 167.001s-24 110 -41 163s-38.167 103 -63.5 150s-55 90 -89 129s-73 71.833 -117 98.5v32c86 -47.333 161.333 -101.833 226 -163.5s118.5 -129.5 161.5 -203.5s75.167 -153.5 96.5 -238.5
s32 -174.5 32 -268.5z" />
    <glyph glyph-name="asterisk" unicode="*" horiz-adv-x="1024" 
d="M864 737c-16.667 -18.667 -36.334 -27.9912 -59.001 -27.9912c-23.333 0 -40.5 4 -51.5 12s-20.667 18.5 -29 31.5l-30 45c-11.667 17 -29.5 34.5 -53.5 52.5l-117 88c0 -37.333 2.5 -75.333 7.5 -114s9.5 -71.667 13.5 -99c0.666992 -2.66699 2.5 -7.83398 5.5 -15.501
s6 -16.667 9 -27s5.66699 -21.333 8 -33s3.5 -22.834 3.5 -33.501c0 -6.66699 -1.5 -14 -4.5 -22s-8 -15.667 -15 -23s-16 -13.5 -27 -18.5s-24.167 -7.5 -39.5 -7.5c-44.667 8 -67 38 -67 90v3c0 14 1.83301 25 5.5 33s8.33398 17.667 14.001 29s11.834 26.5 18.501 45.5
s13 46.167 19 81.5l19 111c-50 -30.667 -94.667 -62.667 -134 -96c-11.333 -10 -23 -22 -35 -36s-24.333 -27.5 -37 -40.5s-25.834 -24 -39.501 -33s-27.5 -13.5 -41.5 -13.5c-17.333 0 -32.333 3.66699 -45 11s-21 16.666 -25 27.999l-6 39c0 18 4.66699 32.667 14 44
s20.833 20.166 34.5 26.499s28 10.833 43 13.5s28.167 4 39.5 4c10 0 19.167 0.333008 27.5 1s19.666 3.5 33.999 8.5s33.166 12.833 56.499 23.5l95 45c-23.333 14 -46.166 26.333 -68.499 37s-44.666 20.167 -66.999 28.5s-45.5 15.833 -69.5 22.5s-49.667 12.667 -77 18
c-13.333 1.33301 -25.166 9.16602 -35.499 23.499s-17.166 31.833 -20.499 52.5c0 8 1.83301 16.333 5.5 25s9 16.834 16 24.501s15.167 14 24.5 19s20 7.5 32 7.5c15.333 0 27.5 -1.5 36.5 -4.5s16.667 -7.5 23 -13.5s12.333 -13.333 18 -22s13 -19.167 22 -31.5
s20.667 -26.166 35 -41.499s33.166 -32.333 56.499 -51l88 -70c0 33.333 -1.16699 64.166 -3.5 92.499s-5.83301 55.166 -10.5 80.499s-10.334 49.666 -17.001 72.999s-14.334 46.666 -23.001 69.999c-2.66699 7.33301 -4 14 -4 20c0 8 1.83301 16.333 5.5 25
s9.33398 16.667 17.001 24s17.167 13.333 28.5 18s25 7 41 7c45.333 -8 68 -38 68 -90c0 -13.333 -3.5 -27.666 -10.5 -42.999s-14.833 -34.833 -23.5 -58.5s-16.5 -53 -23.5 -88s-10.5 -78.5 -10.5 -130.5c25.333 11.333 49.166 23.833 71.499 37.5
s43.833 29.167 64.5 46.5c9.33301 8 20.166 18.833 32.499 32.5s25.333 27 39 40s27.834 24.333 42.501 34s29 14.5 43 14.5c12.667 0 25.834 -3.33301 39.501 -10s23.167 -16.334 28.5 -29.001l6 -37c-5.33301 -28.667 -15.333 -48.834 -30 -60.501s-32 -19.667 -52 -24
s-41.333 -7.33301 -64 -9s-45 -6.5 -67 -14.5l-137 -50c26 -12.667 50.5 -24 73.5 -34s45.5 -19 67.5 -27s44.5 -15 67.5 -21s47.5 -11.333 73.5 -16c11.333 -2 23 -9.33301 35 -22s19 -30.667 21 -54c0 -14.667 -6.33301 -30.334 -19 -47.001z" />
    <glyph glyph-name="plus" unicode="+" horiz-adv-x="1155" 
d="M643 1049v-449h451v-131h-451v-455h-131v455h-451v131h451v449h131z" />
    <glyph glyph-name="comma" unicode="," horiz-adv-x="512" 
d="M164 -252c15.333 6.66699 32.5 17.6689 51.5 33.002s36.833 32.666 53.5 51.999s30.667 39.5 42 60.5s17 40.167 17 57.5c0 25.333 -8.33301 39 -25 41l-65 -8c-14.667 0 -28.5 2.16699 -41.5 6.5s-24.5 10.833 -34.5 19.5s-18 19.167 -24 31.5s-9 26.5 -9 42.5
c0 82 41 123 123 123c24 0 46 -5 66 -15s37 -23.833 51 -41.5s25 -38.834 33 -63.501s12 -51.667 12 -81c0 -28 -7.33301 -57.333 -22 -88s-33.334 -60 -56.001 -88s-47.667 -53 -75 -75s-53.666 -38 -78.999 -48l-18 41v0z" />
    <glyph glyph-name="hyphen" unicode="-" horiz-adv-x="682" 
d="M88 526h504v-129h-504v129z" />
    <glyph glyph-name="period" unicode="." horiz-adv-x="512" 
d="M256 207c34 0 62.334 -10.333 85.001 -31s34 -50 34 -88c0 -16 -3.16699 -31.167 -9.5 -45.5s-15 -26.833 -26 -37.5s-23.667 -19 -38 -25s-29.5 -9 -45.5 -9s-31 3.16699 -45 9.5s-26.333 14.833 -37 25.5s-19.167 23 -25.5 37s-9.5 29 -9.5 45s3 31.167 9 45.5
s14.167 27 24.5 38s22.666 19.667 36.999 26s29.833 9.5 46.5 9.5z" />
    <glyph glyph-name="slash" unicode="/" horiz-adv-x="569" 
d="M492 1397h126l-516 -1618h-127z" />
    <glyph glyph-name="colon" unicode=":" horiz-adv-x="569" 
d="M283 207c32.667 0 60.499 -10.333 83.499 -31s34.5 -50 34.5 -88c0 -16 -3.16699 -31.167 -9.5 -45.5s-15 -26.833 -26 -37.5s-23.5 -19 -37.5 -25s-29 -9 -45 -9s-31.167 3.16699 -45.5 9.5s-26.666 14.833 -36.999 25.5s-18.666 23 -24.999 37s-9.5 29 -9.5 45
s3 31.167 9 45.5s14.167 27 24.5 38s22.666 19.667 36.999 26s29.833 9.5 46.5 9.5zM282.999 938c32.667 0 60.499 -10.333 83.499 -31s34.5 -50 34.5 -88c0 -16 -3.16699 -31.167 -9.5 -45.5s-15 -26.833 -26 -37.5s-23.5 -19 -37.5 -25s-29 -9 -45 -9
s-31.167 3.16699 -45.5 9.5s-26.666 14.833 -36.999 25.5s-18.666 23 -24.999 37s-9.5 29 -9.5 45s3 31.167 9 45.5s14.167 27 24.5 38s22.666 19.667 36.999 26s29.833 9.5 46.5 9.5z" />
    <glyph glyph-name="semicolon" unicode=";" horiz-adv-x="569" 
d="M164 -252c14.667 6.66699 31.668 18.501 51.001 35.501s37.666 36 54.999 57s32 42.333 44 64s18 40.5 18 56.5c0 20.667 -9.66699 31 -29 31l-65 -8c-14.667 0 -28.5 2.16699 -41.5 6.5s-24.5 10.833 -34.5 19.5s-18 19.167 -24 31.5s-9 26.5 -9 42.5
c0 82 41 123 123 123c26 0 49 -5.5 69 -16.5s37 -25.833 51 -44.5s24.5 -40.167 31.5 -64.5s10.5 -49.5 10.5 -75.5c0 -27.333 -7.16699 -56.333 -21.5 -87s-32.833 -59.834 -55.5 -87.501s-47.667 -52.667 -75 -75s-54 -38.833 -80 -49.5l-18 41v0zM371.001 825.001
c0 -14 -3.16504 -28.332 -9.49805 -42.999s-14.833 -28 -25.5 -40s-23 -21.667 -37 -29s-28.333 -11 -43 -11c-16.667 0 -32.334 3.5 -47.001 10.5s-27.5 16.167 -38.5 27.5s-19.667 24.333 -26 39s-9.5 30 -9.5 46c0 14.667 3.33301 28.667 10 42s15.667 25.333 27 36
s24.166 19.167 38.499 25.5s29.5 9.5 45.5 9.5c14.667 0 29 -2.83301 43 -8.5s26.333 -13.5 37 -23.5s19.167 -21.833 25.5 -35.5s9.5 -28.834 9.5 -45.501z" />
    <glyph glyph-name="less" unicode="&#x3c;" horiz-adv-x="1155" 
d="M55 479v111l1043 479v-127l-877 -407l877 -408v-127z" />
    <glyph glyph-name="equal" unicode="=" horiz-adv-x="1155" 
d="M61 668v131h1033v-131h-1033zM61 270v131h1033v-131h-1033z" />
    <glyph glyph-name="greater" unicode="&#x3e;" horiz-adv-x="1155" 
d="M55 942v127l1043 -479v-111l-1043 -479v127l877 408z" />
    <glyph glyph-name="question" unicode="?" horiz-adv-x="764" 
d="M721 760c-1.33301 -25.333 -9.49902 -50.499 -24.499 -75.499s-33.333 -49.833 -55 -74.5s-45.167 -49 -70.5 -73l-71 -70l-22 -23.5c-8.66699 -9 -17 -18.5 -25 -28.5s-14.833 -20 -20.5 -30s-8.5 -19 -8.5 -27v-8c0 -8 2.83301 -17.5 8.5 -28.5
s11.167 -20.5 16.5 -28.5l-29 -39c-19.333 7.33301 -37.5 15.833 -54.5 25.5s-31.833 21.167 -44.5 34.5s-22.5 28.833 -29.5 46.5s-10.5 38.167 -10.5 61.5c0 24 5.66699 46.167 17 66.5s25.833 39.5 43.5 57.5s37 34.833 58 50.5l61.5 46.5c32 25.333 57 53.833 75 85.5
s27 67.5 27 107.5c0 12.667 -3.16699 25.334 -9.5 38.001s-14.5 24 -24.5 34s-21.5 18.167 -34.5 24.5s-26.167 9.5 -39.5 9.5c-9.33301 0 -18.833 -2.16699 -28.5 -6.5s-20.834 -13.166 -33.501 -26.499c32.667 -22 49 -48.667 49 -80
c0 -24.667 -10.5 -46.834 -31.5 -66.501s-53.5 -31.5 -97.5 -35.5c-14 0 -28.333 3 -43 9s-27.834 15.167 -39.501 27.5s-21.167 28.166 -28.5 47.499s-11 42 -11 68c0 21.333 6.66699 43.666 20 66.999s32 44.5 56 63.5s52.333 34.667 85 47s68.334 18.5 107.001 18.5
c40 0 76.333 -6.66699 109 -20s60.667 -31 84 -53s41.333 -47.5 54 -76.5s19 -59.5 19 -91.5l-4 -74v0zM387.001 -32.999c-21.333 0 -39.667 3.66699 -55 11s-28.333 16.666 -39 27.999s-18.5 23.833 -23.5 37.5s-7.5 27.167 -7.5 40.5c0 30 9.33301 55.667 28 77
s47 32 85 32c19.333 0 36.5 -3.33301 51.5 -10s27.5 -15.5 37.5 -26.5s17.5 -23.667 22.5 -38s7.5 -29.166 7.5 -44.499c0 -30 -8.66699 -55.333 -26 -76s-44.333 -31 -81 -31z" />
    <glyph glyph-name="at" unicode="@" horiz-adv-x="1548" 
d="M860 242c-34 29.333 -66.4941 51.6621 -97.4941 66.9951s-60.833 26.833 -89.5 34.5s-56.5 13.167 -83.5 16.5s-53.5 7.66602 -79.5 12.999l-100 245c40 -24.667 79.667 -44.334 119 -59.001s82 -22 128 -22c8 0 21.333 0.833008 40 2.5s39.667 4.83398 63 9.50098
s47.5 11 72.5 19s48 18.5 69 31.5s38.167 28.667 51.5 47s20 39.833 20 64.5c0 12.667 -2.66699 26.834 -8 42.501s-14.333 30.334 -27 44.001s-29.5 25.167 -50.5 34.5s-47.167 14 -78.5 14l-37 -6c-1.33301 -16 -5.83301 -33.833 -13.5 -53.5s-18.667 -38.167 -33 -55.5
s-32 -31.833 -53 -43.5s-45.833 -17.5 -74.5 -17.5c-30 0 -55.667 9.16699 -77 27.5s-32 44.5 -32 78.5c0 28.667 9 53.834 27 75.501s40.5 39.834 67.5 54.501s56.667 25.834 89 33.501s62.5 11.5 90.5 11.5c32 0 65 -4 99 -12s65 -20.5 93 -37.5s51 -38.5 69 -64.5
s27 -57.333 27 -94c0 -37.333 -4.5 -72.666 -13.5 -105.999s-23.5 -64.333 -43.5 -93s-46.167 -54.667 -78.5 -78s-71.833 -43.333 -118.5 -60c25.333 -18 51.5 -38.5 78.5 -61.5s56.167 -45.333 87.5 -67s65.666 -41 102.999 -58s79.333 -28.833 126 -35.5
c22.667 2.66699 44.334 11.834 65.001 27.501s39.5 35.667 56.5 60s32.333 51.5 46 81.5s25.167 60.667 34.5 92s16.5 61.833 21.5 91.5s7.5 56.5 7.5 80.5c0 48 -6.83301 94.667 -20.5 140s-33 88 -58 128s-54.667 76.667 -89 110s-72.5 62 -114.5 86s-87 42.667 -135 56
s-97.667 20 -149 20c-68.667 -5.33301 -133.334 -19 -194.001 -41s-116.334 -50.833 -167.001 -86.5s-95.834 -76.834 -135.501 -123.501s-73.334 -97.334 -101.001 -152.001s-48.834 -112.334 -63.501 -173.001s-22 -122.667 -22 -186c0 -87.333 14.833 -168 44.5 -242
s71.5 -138 125.5 -192s119.167 -96.167 195.5 -126.5s161.5 -45.5 255.5 -45.5c44 0 82.667 1.16699 116 3.5s65.833 7.5 97.5 15.5s65 19.833 100 35.5s76.5 37.167 124.5 64.5l33 -68c-74.667 -38 -151.5 -68.333 -230.5 -91s-160.5 -34 -244.5 -34
c-58 0 -117.667 6.83301 -179 20.5s-121.333 34.334 -180 62.001s-114.167 62.167 -166.5 103.5s-98.166 89.833 -137.499 145.5s-70.5 118.334 -93.5 188.001s-34.5 146.5 -34.5 230.5c0 72.667 12.5 142 37.5 208s58.833 127.333 101.5 184s92.667 108.167 150 154.5
s118.5 85.666 183.5 117.999s132 57.333 201 75s136.5 26.5 202.5 26.5c74 0 140.5 -9.5 199.5 -28.5s111.333 -44.667 157 -77s85 -69.5 118 -111.5s60 -86 81 -132s36.5 -92.167 46.5 -138.5s15 -90.166 15 -131.499c0 -60 -6.5 -113.667 -19.5 -161
s-31.167 -92.333 -54.5 -135c-8 -12 -18.833 -29.667 -32.5 -53s-30.667 -46.333 -51 -69s-44.833 -42.5 -73.5 -59.5s-62.334 -25.5 -101.001 -25.5c-19.333 0 -36 0.833008 -50 2.5s-30.833 6.66699 -50.5 15s-44.834 21.5 -75.501 39.5z" />
    <glyph glyph-name="bracketleft" unicode="[" horiz-adv-x="457" 
d="M149 1199h222v-69h-119v-1136h119v-69h-222v1274z" />
    <glyph glyph-name="backslash" unicode="\" horiz-adv-x="569" 
d="M-25 1397h127l516 -1618h-126z" />
    <glyph glyph-name="bracketright" unicode="]" horiz-adv-x="503" 
d="M129 -8h115v1140h-115v69h218v-1278h-218v69z" />
    <glyph glyph-name="underscore" unicode="_" horiz-adv-x="1182" 
d="M6 101h1176v-103h-1176v103z" />
    <glyph glyph-name="braceleft" unicode="{" horiz-adv-x="983" 
d="M698 1397c-62 -10.667 -105.83 -37.832 -131.497 -81.499s-38.5 -100.5 -38.5 -170.5v-357c0 -40.667 -1.83301 -75.167 -5.5 -103.5s-11.334 -52.5 -23.001 -72.5s-28.5 -36.667 -50.5 -50s-51 -25.333 -87 -36c31.333 -7.33301 57.666 -17.333 78.999 -30
s38.5 -29.834 51.5 -51.501s22.167 -48.334 27.5 -80.001s8 -70.5 8 -116.5v-336c0 -36.667 2.83301 -69 8.5 -97s15 -52 28 -72s30.5 -36.667 52.5 -50s49 -23.666 81 -30.999c-63.333 0 -115.333 4.5 -156 13.5s-73 25 -97 48s-40.667 54 -50 93s-14 88.5 -14 148.5v326
c0 38 -1.83301 69.833 -5.5 95.5s-11 47.167 -22 64.5s-26.833 31.833 -47.5 43.5s-47.667 22.167 -81 31.5c32.667 8.66699 59.167 19.5 79.5 32.5s36.166 28.833 47.499 47.5s19 40.5 23 65.5s6 53.833 6 86.5v358c0 50.667 4.66699 93.667 14 129s25.833 64.333 49.5 87
s56 39.167 97 49.5s93.167 15.5 156.5 15.5z" />
    <glyph glyph-name="bar" unicode="|" horiz-adv-x="318" 
d="M109 1585h103v-2011h-103v2011z" />
    <glyph glyph-name="braceright" unicode="}" horiz-adv-x="983" 
d="M758 526c-62.667 -14.667 -105 -39.6719 -127 -75.0049c-19.333 -35.333 -29 -88.666 -29 -159.999v-326c0 -121.333 -23 -202 -69 -242c-23.333 -20 -55.333 -35.167 -96 -45.5s-91.334 -15.5 -152.001 -15.5c24.667 4 48.334 12.333 71.001 25
c34 17.333 59 45.5 75 84.5s24 85.833 24 140.5v336c0 42 2 78.167 6 108.5s10.667 54.166 20 71.499c23.333 47.333 70 80 140 98c-64 16.667 -108.667 45.334 -134 86.001c-11.333 20.667 -19.5 45.667 -24.5 75s-7.5 63 -7.5 101v357c0 36 -2.66699 67.833 -8 95.5
s-14.5 51.667 -27.5 72s-30.5 37.333 -52.5 51s-49.333 24.834 -82 33.501h59c90 0 154.333 -19.333 193 -58c43.333 -43.333 65 -117.666 65 -222.999v-358c0 -33.333 2 -62.166 6 -86.499s11.833 -45.666 23.5 -63.999s27.667 -34 48 -47s46.5 -24.5 78.5 -34.5z" />
    <glyph glyph-name="divide" unicode="&#xf7;" horiz-adv-x="1075" 
d="M662 801c0 -18.667 -2.83203 -35.999 -8.49902 -51.999s-13.834 -29.833 -24.501 -41.5s-23.667 -20.834 -39 -27.501s-32.333 -10 -51 -10c-18 0 -35 3.5 -51 10.5s-29.833 16.333 -41.5 28s-21 25.5 -28 41.5s-10.5 33 -10.5 51c0 16 3.33301 31.5 10 46.5
s15.667 28.333 27 40s25 21 41 28s33.667 10.5 53 10.5c18 0 34.5 -3.16699 49.5 -9.5s28 -15 39 -26s19.5 -24.167 25.5 -39.5s9 -32 9 -50zM80.001 541.001h921v-80h-921v80zM662.001 199.001c0 -18.667 -2.83301 -36 -8.5 -52s-13.834 -30 -24.501 -42
s-23.667 -21.5 -39 -28.5s-32.333 -10.5 -51 -10.5c-18 0 -35 3.5 -51 10.5s-29.833 16.5 -41.5 28.5s-21 26 -28 42s-10.5 33.333 -10.5 52c0 16 3.33301 31.667 10 47s15.834 28.666 27.501 39.999s25.5 20.5 41.5 27.5s33.333 10.5 52 10.5
c16.667 0 32.5 -3.16699 47.5 -9.5s28 -15.166 39 -26.499s19.833 -24.5 26.5 -39.5s10 -31.5 10 -49.5zM602.001 793.001c0 22.667 -3.49902 40.501 -10.499 53.501s-24.5 22.167 -52.5 27.5c-12 0 -22 -2.5 -30 -7.5s-14.5 -11.333 -19.5 -19
s-8.83301 -16.334 -11.5 -26.001s-4.33398 -19.167 -5.00098 -28.5c1.33301 -21.333 7 -37.5 17 -48.5s26.333 -18.167 49 -21.5c16.667 0 30.667 4.66699 42 14s18.333 28 21 56zM602.002 197.002c0 46 -23.333 69 -70 69c-11.333 0 -20.833 -3 -28.5 -9
s-14 -13.5 -19 -22.5s-8.66699 -18.667 -11 -29s-3.5 -19.833 -3.5 -28.5c0 -7.33301 2.33301 -14.333 7 -21s10.667 -12.5 18 -17.5s15.5 -9.16699 24.5 -12.5s18.167 -5 27.5 -5c7.33301 0 14.333 1 21 3s12.5 5.66699 17.5 11s9 13 12 23s4.5 23 4.5 39z" />
    <glyph glyph-name="danda" unicode="&#x964;" horiz-adv-x="653" 
d="M340 33v987l104 -53v-1004l-61 37z" />
    <glyph glyph-name="doubledanda" unicode="&#x965;" horiz-adv-x="915" 
d="M340 33v987l103 -53v-1004l-58 37zM645 33v987l103 -53v-1004l-60 37z" />
    <glyph glyph-name="bn_candrabindu" unicode="&#x981;" 
d="M-354 1495c-17.333 0 -32.667 7.00098 -46 21.001s-20 29.667 -20 47c0 9.33301 1.83301 18.5 5.5 27.5s8.83398 17 15.501 24s14.5 12.667 23.5 17s18.833 6.5 29.5 6.5c17.333 0 32.5 -5.33301 45.5 -16s19.5 -24.334 19.5 -41.001c0 -7.33301 -1 -15.833 -3 -25.5
s-5.66699 -19 -11 -28s-12.833 -16.667 -22.5 -23s-21.834 -9.5 -36.501 -9.5zM-141.001 1536c0 -30 -4.99805 -58.6689 -14.998 -86.002s-23.833 -51.666 -41.5 -72.999s-38.667 -38.333 -63 -51s-50.833 -19 -79.5 -19c-32 0 -63.333 9.16699 -94 27.5s-59 42 -85 71
s-48.833 61.667 -68.5 98s-34.167 72.5 -43.5 108.5l25 2c16.667 0 27.667 -2 33 -6c8.66699 -25.333 20 -49.166 34 -71.499s30.5 -42 49.5 -59s40.167 -30.667 63.5 -41s48.666 -16.166 75.999 -17.499c22.667 4 41.5 8 56.5 12s28.667 11.5 41 22.5
s24.333 27.167 36 48.5s25.167 51.666 40.5 90.999c7.33301 0 13.166 -1.5 17.499 -4.5s8.83301 -7.5 13.5 -13.5l4 -39v0z" />
    <glyph glyph-name="bn_anusvara" unicode="&#x982;" horiz-adv-x="616" 
d="M297 1087c30 0 58.335 -6.66602 85.002 -19.999s50 -31.166 70 -53.499s36 -47.833 48 -76.5s18 -58.334 18 -89.001c0 -25.333 -4.83301 -51.166 -14.5 -77.499s-23 -50.5 -40 -72.5s-37.5 -40 -61.5 -54s-50 -21 -78 -21c-30 0 -58.667 8 -86 24s-51.5 36.667 -72.5 62
s-37.833 53.666 -50.5 84.999s-19 62.333 -19 93c0 27.333 5.33301 53.166 16 77.499s25.167 45.5 43.5 63.5s39.666 32.333 63.999 43s50.166 16 77.499 16zM580.002 0.000976562c-28 27.333 -60.668 56.5 -98.001 87.5s-76.166 61.667 -116.499 92l-121 87l-111.5 73.5
v231c54 -42 104.667 -85.5 152 -130.5s93.5 -92.167 138.5 -141.5s90 -101.333 135 -156l141.5 -174v-88l-120 119v0zM350.001 766.001c30 20.667 51.165 39.835 63.498 57.502s18.5 34.5 18.5 50.5c0 10 -3.33301 19.333 -10 28s-15.667 16.167 -27 22.5
s-24.166 11.166 -38.499 14.499s-28.833 5 -43.5 5c-25.333 0 -46.666 -4.33301 -63.999 -13s-31.333 -20 -42 -34s-18.5 -30.167 -23.5 -48.5s-7.5 -37.5 -7.5 -57.5c0 -50.667 20 -76 60 -76c15.333 0 32.333 4.16699 51 12.5s39.667 21.166 63 38.499z" />
    <glyph glyph-name="bn_visarga" unicode="&#x983;" horiz-adv-x="641" 
d="M524 694c-21.333 -21.333 -42.5 -37.501 -63.5 -48.501s-44.833 -16.5 -71.5 -16.5c-30 0 -58.833 7.5 -86.5 22.5s-52 34.833 -73 59.5s-37.833 52.667 -50.5 84s-19 63.333 -19 96c0 28 6 54.5 18 79.5s28 46.833 48 65.5s42.833 33.334 68.5 44.001s52.5 16 80.5 16
c28.667 0 56.167 -6.16699 82.5 -18.5s49.833 -29 70.5 -50s37.167 -45.5 49.5 -73.5s18.5 -57.333 18.5 -88c0 -62.667 -24 -120 -72 -172zM516 95.999c-19.333 -21.333 -39.833 -36.6709 -61.5 -46.0039s-44.834 -15.666 -69.501 -18.999c-28 0 -55.333 7.66699 -82 23
s-50.334 35.333 -71.001 60s-37.167 52.834 -49.5 84.501s-18.5 63.834 -18.5 96.501c0 28 5.33301 54.833 16 80.5s25.5 48.334 44.5 68.001s41.5 35.334 67.5 47.001s54.333 17.5 85 17.5c28.667 0 55.834 -6.33301 81.501 -19s48.334 -29.834 68.001 -51.501
s35.167 -46.5 46.5 -74.5s17 -57 17 -87c0 -32 -5.33301 -62.5 -16 -91.5s-30 -58.5 -58 -88.5zM422 765.994c56 40 84.001 76.999 84.001 110.999c0 12 -3.5 22.667 -10.5 32s-16.333 17.333 -28 24s-25 11.834 -40 15.501s-30.5 5.5 -46.5 5.5
c-23.333 0 -43.5 -4 -60.5 -12s-30.833 -19 -41.5 -33s-18.5 -30.333 -23.5 -49s-7.5 -38.334 -7.5 -59.001c0 -23.333 4.66699 -41.666 14 -54.999s25.666 -21.666 48.999 -24.999c15.333 0 32.333 3.66699 51 11s38.667 18.666 60 33.999zM430.001 163.993
c24.667 20.667 42.668 41.001 54.001 61.001s18.666 38.667 21.999 56c0 14 -4.16699 27 -12.5 39s-19.5 22.167 -33.5 30.5s-29.667 14.833 -47 19.5s-35 7 -53 7c-32 0 -58.333 -11.833 -79 -35.5s-31 -61.834 -31 -114.501c0 -32 6 -58.667 18 -80s30.667 -32 56 -32
c15.333 0 31 3.33301 47 10l59 39v0z" />
    <glyph glyph-name="bn_a" unicode="&#x985;" horiz-adv-x="1217" 
d="M1072 -8c-12.667 12 -22.835 25.166 -30.502 39.499s-14.167 29.333 -19.5 45s-10.166 31.834 -14.499 48.501s-9.16602 33 -14.499 49l-14 41c-14 18.667 -26.667 37.667 -38 57s-23 38.166 -35 56.499s-24.833 36.166 -38.5 53.499s-29.834 33.333 -48.501 48
c-13.333 -26 -29.666 -48.833 -48.999 -68.5s-40.666 -36.167 -63.999 -49.5s-48 -23.333 -74 -30s-52.333 -10 -79 -10c-46 0 -89.5 10 -130.5 30s-79.167 47.167 -114.5 81.5s-67.833 74.833 -97.5 121.5s-56.667 96.5 -81 149.5s-46 107.833 -65 164.5
s-35.167 112.667 -48.5 168l64 -26c10 -39.333 22.5 -79.166 37.5 -119.499s33 -79.5 54 -117.5s44.667 -73.667 71 -107s56 -62.5 89 -87.5s69.167 -44.667 108.5 -59s82.333 -21.5 129 -21.5c29.333 0 54.833 4.16699 76.5 12.5s39.5 20 53.5 35s24.5 32.667 31.5 53
s10.5 42.5 10.5 66.5c0 25.333 -2.83301 49.833 -8.5 73.5s-13.334 44.667 -23.001 63s-20.667 33 -33 44s-25.5 16.5 -39.5 16.5c-20.667 -32 -45 -57 -73 -75s-57 -27 -87 -27c-18 0 -35.333 3.33301 -52 10s-31.667 15.834 -45 27.501s-24 25.5 -32 41.5
s-12 33.333 -12 52c0 17.333 3 34.5 9 51.5s14.5 32.333 25.5 46s24.333 24.667 40 33s33.167 12.5 52.5 12.5c56 0 107.5 -10.333 154.5 -31s87.833 -49.334 122.5 -86.001s61.667 -80.167 81 -130.5s29 -105.166 29 -164.499l119 -206v673h-1009v103h1297v-103h-185v-1048
z" />
    <glyph glyph-name="bn_aa" unicode="&#x986;" horiz-adv-x="1591" 
d="M1076 -8c-16 17.333 -28.9961 36.6699 -38.9961 58.0029s-18.167 42.5 -24.5 63.5s-11.666 40.5 -15.999 58.5s-8.83301 32.333 -13.5 43l-71.5 105c-18.333 26 -33 46.167 -44 60.5s-19.667 24.833 -26 31.5s-12.5 12.667 -18.5 18
c-12.667 -25.333 -28.5 -47.666 -47.5 -66.999s-40.167 -35.5 -63.5 -48.5s-48 -22.667 -74 -29s-52.333 -9.5 -79 -9.5c-48.667 0 -93.834 10 -135.501 30s-80 47 -115 81s-67.167 74.167 -96.5 120.5s-55.833 95.833 -79.5 148.5s-44.834 107.167 -63.501 163.5
s-35 112.166 -49 167.499l64 -26c10 -39.333 22.5 -79.166 37.5 -119.499s33 -79.5 54 -117.5s44.667 -73.667 71 -107s56 -62.5 89 -87.5s69.167 -44.667 108.5 -59s82.333 -21.5 129 -21.5c29.333 0 54.833 4.16699 76.5 12.5s39.5 20 53.5 35s24.5 32.667 31.5 53
s10.5 42.5 10.5 66.5c0 25.333 -2.83301 49.833 -8.5 73.5s-13.334 44.667 -23.001 63s-20.667 33 -33 44s-25.5 16.5 -39.5 16.5c-23.333 -30.667 -48.333 -55.334 -75 -74.001s-55 -28 -85 -28c-16 0 -32.5 3.16699 -49.5 9.5s-32.167 15.166 -45.5 26.499
s-24.333 25.166 -33 41.499s-13 34.166 -13 53.499c0 17.333 3 34.5 9 51.5s14.5 32.333 25.5 46s24.333 24.667 40 33s33.167 12.5 52.5 12.5c56.667 0 108.667 -10.333 156 -31s88.166 -49.5 122.499 -86.5s61 -80.667 80 -131s28.5 -104.833 28.5 -163.5l119 -206v673
h-1013v103h1088l3 1c10 2 19.333 3 28 3c40.667 0 75.834 -4.33301 105.501 -13s55.5 -23.334 77.5 -44.001s41.5 -48.167 58.5 -82.5s33.5 -77.166 49.5 -128.499l-33 233c-2 44.667 -3.5 80.167 -4.5 106.5s-1.83301 46.833 -2.5 61.5s-1.33398 25.167 -2.00098 31.5
s-1.33398 11.5 -2.00098 15.5l40 -33c3.33301 -28 9 -55.333 17 -82s22.667 -49.667 44 -69h201v-103h-196v-1075l-103 107v768c0 48 -12.667 89 -38 123s-63 59.667 -113 77h-102v-1048z" />
    <glyph glyph-name="bn_i" unicode="&#x987;" horiz-adv-x="961" 
d="M442 1040c2 -16 7.33301 -29.833 16 -41.5s19 -21.5 31 -29.5s25.167 -14.5 39.5 -19.5s28.5 -8.83301 42.5 -11.5c26.667 -6 52.834 -19 78.501 -39s48.667 -43.667 69 -71s36.666 -57 48.999 -89s18.5 -63.333 18.5 -94
c-2.66699 -41.333 -12.167 -78.166 -28.5 -110.499s-37.666 -61 -63.999 -86s-57.333 -46.333 -93 -64s-74.167 -32.5 -115.5 -44.5l129.5 -90.5c37.667 -27 73 -53.833 106 -80.5s65.167 -54.167 96.5 -82.5s65 -60.5 101 -96.5l32 -140
c-48.667 52.667 -103.334 103.667 -164.001 153s-124.834 94.333 -192.501 135s-137.5 75.834 -209.5 105.501s-143.333 51.5 -214 65.5l-123 256c40 -24.667 85.167 -44.167 135.5 -58.5s100.833 -21.5 151.5 -21.5c23.333 0 51.833 2.83301 85.5 8.5s66.5 16 98.5 31
s60.5 35.5 85.5 61.5s40.833 59.333 47.5 100c-1.33301 20.667 -6.5 40.334 -15.5 59.001s-20.167 35 -33.5 49s-28.5 25.167 -45.5 33.5s-33.833 12.5 -50.5 12.5c-12.667 0 -27 -3.66699 -43 -11c0 -26.667 -6.16699 -51.334 -18.5 -74.001
s-28.166 -42.334 -47.499 -59.001s-40.666 -29.667 -63.999 -39s-46.333 -14 -69 -14c-25.333 0 -48.833 6.33301 -70.5 19s-35.5 33.667 -41.5 63c0.666992 30.667 7.16699 58.5 19.5 83.5s28.833 47.5 49.5 67.5s44.5 37.333 71.5 52s55.833 27 86.5 37
c-3.33301 1.33301 -6.33301 6.5 -9 15.5s-8.66699 18.167 -18 27.5l-37 32h-345v103h601l68 6c4.66699 0.666992 11 3 19 7s15.5 9 22.5 15s13.167 13 18.5 21s8 16.333 8 25c0 12 -6.33301 22.167 -19 30.5s-27.667 14.833 -45 19.5s-34.833 8 -52.5 10s-31.5 3 -41.5 3
c-4.66699 0.666992 -9 1.16699 -13 1.5s-8.33301 0.5 -13 0.5h-25l-236 -14c-33.333 0 -68.333 4.5 -105 13.5s-70.5 22.833 -101.5 41.5s-56.5 42.167 -76.5 70.5s-30 62.166 -30 101.499c0 12 1.16699 24.167 3.5 36.5s6.5 23.833 12.5 34.5s14.5 19.334 25.5 26.001
s25.167 10 42.5 10c4 0 8 -0.166992 12 -0.5s8 -1.16602 12 -2.49902c-15.333 -16.667 -27.833 -33.834 -37.5 -51.501s-14.5 -34.5 -14.5 -50.5c0 -11.333 3 -22 9 -32s16 -18.667 30 -26s32.167 -13.166 54.5 -17.499s50.166 -6.5 83.499 -6.5c6 0 33.667 1 83 3
s125 6 227 12c42.667 0 82 -6.83301 118 -20.5s67 -32.334 93 -56.001s46.333 -51.334 61 -83.001s22 -65.5 22 -101.5l-2 -26h269v-103h-611v0z" />
    <glyph glyph-name="bn_ii" unicode="&#x988;" horiz-adv-x="1051" 
d="M340 1040c-5.33301 -9.33301 -9.33496 -17.167 -12.002 -23.5s-4 -12.833 -4 -19.5c0 -10 3 -18.167 9 -24.5s13.667 -11.833 23 -16.5s19.833 -8.83398 31.5 -12.501s23.167 -7.5 34.5 -11.5c41.333 -23.333 75.166 -52 101.499 -86s39.5 -73.667 39.5 -119v-13
c0 -2.66699 -0.166992 -5 -0.5 -7s-0.833008 -4.33301 -1.5 -7c34 48 75.667 92 125 132s101.333 72.667 156 98l168 -111c-38 -31.333 -72 -66.833 -102 -106.5s-55.333 -82 -76 -127s-36.5 -92.167 -47.5 -141.5s-16.5 -99 -16.5 -149c0 -32 1.66699 -60.833 5 -86.5
s8.5 -50.334 15.5 -74.001s16.333 -47.5 28 -71.5s25.5 -50.333 41.5 -79l-86 43c-24.667 62.667 -44.5 125.667 -59.5 189s-22.5 127.333 -22.5 192c0 56.667 6.5 111.834 19.5 165.501s34.5 107.5 64.5 161.5c-23.333 -24 -46.166 -50.167 -68.499 -78.5l-67.5 -86.5
l-69 -87.5c-23.333 -29 -47.666 -55.833 -72.999 -80.5s-52 -46.5 -80 -65.5s-58 -33.5 -90 -43.5c-26.667 0 -51.334 5.66699 -74.001 17s-42.5 26.5 -59.5 45.5s-30.833 41.333 -41.5 67s-17.334 52.834 -20.001 81.501c0.666992 6 2.83398 11.333 6.50098 16
s7.66699 9 12 13s9 7.83301 14 11.5s9.16699 7.83398 12.5 12.501c11.333 -42 25.166 -71.333 41.499 -88s33.833 -25 52.5 -25c14 0 33.167 7.33301 57.5 22s48.333 33.667 72 57s44.167 49.333 61.5 78s26 57 26 85c0 17.333 -2 34.333 -6 51s-9.66699 31.334 -17 44.001
s-16.5 22.834 -27.5 30.501s-23.5 11.5 -37.5 11.5c-15.333 0 -33.666 -7.33301 -54.999 -22c0 -42 -10 -75.333 -30 -100s-47 -37 -81 -37c-20 0 -38.333 3.16699 -55 9.5s-31 15.333 -43 27s-21.5 25.667 -28.5 42s-10.5 34.5 -10.5 54.5v6c0 20.667 4.83301 40 14.5 58
s22.167 34 37.5 48s32.333 25.5 51 34.5s37 14.833 55 17.5l-47 79h-239v103h780c35.333 11.333 53 36.666 53 75.999c0 8.66699 -3.33301 16 -10 22s-15.5 11 -26.5 15s-23.333 7 -37 9s-27.5 3 -41.5 3l-162.5 -15.5c-54.333 -5 -108.833 -9.5 -163.5 -13.5h-63
c-7.33301 0 -18.666 1.16699 -33.999 3.5s-32.5 6.66602 -51.5 12.999s-38.667 14.833 -59 25.5s-39.166 24.334 -56.499 41.001s-32 36.667 -44 60s-19 50.666 -21 81.999c0 36 8.66699 66.667 26 92l37 29l35 -41c-15.333 -27.333 -23 -51 -23 -71
c0 -16.667 4.5 -30.334 13.5 -41.001s21 -19.167 36 -25.5s32.167 -10.833 51.5 -13.5s39.666 -4 60.999 -4c30 0 57.167 1 81.5 3s47 4.33301 68 7s41.5 5 61.5 7s40.667 3 62 3c46.667 0 90.334 -4.83301 131.001 -14.5s76.167 -24.667 106.5 -45s54.333 -46.333 72 -78
s26.5 -69.167 26.5 -112.5v-16h208v-103h-745v0z" />
    <glyph glyph-name="bn_u" unicode="&#x989;" horiz-adv-x="1096" 
d="M525 737c0.666992 -9.33301 2.66699 -18.8311 6 -28.498s8 -18.5 14 -26.5s13.167 -14.5 21.5 -19.5s18.166 -7.5 29.499 -7.5c6.66699 0 14.834 4.66699 24.501 14s20.167 21 31.5 35l35.5 45.5c12.333 16.333 24.333 31.5 36 45.5s22.667 25.667 33 35s19.5 14 27.5 14
c22 0 42 -5.83301 60 -17.5s34.167 -27 48.5 -46s26.833 -40.667 37.5 -65s19.5 -48.833 26.5 -73.5s12.167 -48.5 15.5 -71.5s5 -43.167 5 -60.5c0 -50 -7.5 -98.167 -22.5 -144.5s-38 -87 -69 -122s-70 -63 -117 -84s-102.5 -31.5 -166.5 -31.5
c-67.333 0 -126.166 12.667 -176.499 38s-93.5 59.666 -129.5 102.999s-66 93.5 -90 150.5s-44 117 -60 180s-28.667 127.167 -38 192.5s-17.333 127.666 -24 186.999l61 -33c4 -40 10.833 -83.5 20.5 -130.5s23 -94.333 40 -142s37.5 -93.834 61.5 -138.501
s52.5 -84.167 85.5 -118.5s70.667 -61.833 113 -82.5s89.833 -31 142.5 -31c38.667 0 75.334 7.16699 110.001 21.5s64.667 33.333 90 57s45.5 50.834 60.5 81.501s22.5 62.667 22.5 96c0 22.667 -3.5 45.167 -10.5 67.5s-18.5 44.166 -34.5 65.499
c-10 -20 -25.5 -42 -46.5 -66s-44.667 -46.167 -71 -66.5s-54.5 -37.5 -84.5 -51.5s-59 -21 -87 -21c-21.333 0 -40.333 4.66699 -57 14s-30.667 21.666 -42 36.999s-20.166 33 -26.499 53s-9.5 40.667 -9.5 62v387h-452v103h732l80 33l25 20c0 14 -5.16699 26.333 -15.5 37
s-24.666 19.667 -42.999 27s-40 12.833 -65 16.5s-52.167 5.5 -81.5 5.5c-40 0 -80.333 -2.33301 -121 -7s-81 -7 -121 -7c-34.667 0 -69.834 5 -105.501 15s-68 24.833 -97 44.5s-52.667 43.667 -71 72s-27.5 60.833 -27.5 97.5c0 14.667 1.83301 29 5.5 43s8 26.333 13 37
s10.5 19.167 16.5 25.5s11 9.5 15 9.5l49 -21c-12.667 -8 -21.834 -17.5 -27.501 -28.5s-10.167 -24.5 -13.5 -40.5c0 -22 6.16699 -40.167 18.5 -54.5s28.166 -25.666 47.499 -33.999s41 -14.166 65 -17.499s47.667 -5 71 -5l287 16c36.667 0 72.667 -6.16699 108 -18.5
s66.666 -29.5 93.999 -51.5s49.333 -48.5 66 -79.5s25 -65.5 25 -103.5v-16c0 -3.33301 -0.666992 -8.33301 -2 -15h250v-103h-622v-303z" />
    <glyph glyph-name="bn_uu" unicode="&#x98a;" horiz-adv-x="1149" 
d="M633 672c0 -28.667 6.00293 -43 18.0029 -43c29.333 8 55.166 20.5 77.499 37.5s43 36 62 57s37.5 43 55.5 66s37 44.5 57 64.5c32 -18 59.333 -39 82 -63s41.5 -49.833 56.5 -77.5s26 -56.834 33 -87.501s10.5 -62 10.5 -94c0 -51.333 -9.16699 -102.166 -27.5 -152.499
s-45 -95.166 -80 -134.499s-78 -71.166 -129 -95.499s-109.167 -36.5 -174.5 -36.5c-66 6.66699 -126.167 22.667 -180.5 48s-103 57.833 -146 97.5s-80.5 85 -112.5 136s-59.167 105.167 -81.5 162.5s-39.666 116.833 -51.999 178.5s-20.166 123.167 -23.499 184.5l-2 34
l57 -49c8 -56 20.5 -112.833 37.5 -170.5s38.167 -112.834 63.5 -165.501s55.166 -101.5 89.499 -146.5s73.166 -83.5 116.499 -115.5c-34.667 44.667 -64.334 93 -89.001 145s-45 105.667 -61 161s-28.333 111.666 -37 168.999s-14.334 114 -17.001 170l59 -43
c3.33301 -39.333 9 -81 17 -125s19 -87.833 33 -131.5s31.5 -85.834 52.5 -126.501s46.167 -77 75.5 -109s63.166 -58.5 101.499 -79.5s81.833 -33.833 130.5 -38.5c36 0 71.833 7.16699 107.5 21.5s67.667 33.5 96 57.5s51.333 51.833 69 83.5s26.5 64.834 26.5 99.501
c0 44.667 -16 87 -48 127c-10.667 -17.333 -26.167 -37.333 -46.5 -60s-43 -44.334 -68 -65.001s-51.5 -38.167 -79.5 -52.5s-55.333 -21.5 -82 -21.5c-23.333 0 -44.333 5.66699 -63 17s-34.5 25.833 -47.5 43.5s-22.833 37.167 -29.5 58.5s-10 42 -10 62v370h-560v103h841
c28.667 0 45 4.66699 49 14l4 31c0 12.667 -4 24 -12 34s-18.5 18.333 -31.5 25s-27.5 11.834 -43.5 15.501s-32 5.5 -48 5.5h-35c-24.667 0 -48.834 -1.16699 -72.501 -3.5l-70.5 -7l-71 -7c-24 -2.33301 -48.667 -3.5 -74 -3.5h-29c-144.667 0 -253.5 18.833 -326.5 56.5
s-109.5 98.167 -109.5 181.5c0 20.667 3.16699 40.5 9.5 59.5s16.833 34.5 31.5 46.5c12 -8 23.167 -17.5 33.5 -28.5s18.166 -23.167 23.499 -36.5c-9.33301 -13.333 -16.166 -25.166 -20.499 -35.499s-6.5 -19.166 -6.5 -26.499c0 -10 2.83301 -19.833 8.5 -29.5
s15.834 -18.334 30.501 -26.001s34.334 -13.667 59.001 -18s55.667 -6.5 93 -6.5c54 0 108.5 3.16699 163.5 9.5s109.5 11.5 163.5 15.5h35c46 0 90.667 -4.33301 134 -13s82.166 -23.334 116.499 -44.001s62.833 -48 85.5 -82s36.334 -76.333 41.001 -127h262v-103h-571
v-368z" />
    <glyph glyph-name="bn_ri" unicode="&#x98b;" horiz-adv-x="1239" 
d="M1043 213l-30.0039 39c-10.667 32 -22.167 64.333 -34.5 97s-27.333 63.167 -45 91.5s-38.834 53.833 -63.501 76.5s-55 40 -91 52v-493l-35 37c-13.333 56.667 -35.5 109.834 -66.5 159.501s-68.167 93.5 -111.5 131.5s-91.833 69.167 -145.5 93.5
s-109.834 39.5 -168.501 45.5l-107 153c34 30.667 69.833 58.5 107.5 83.5s76.334 48.5 116.001 70.5s79.834 43 120.501 63l121 60c-7.33301 10 -16.333 20 -27 30s-22.167 19 -34.5 27s-24.666 14.5 -36.999 19.5s-23.833 7.5 -34.5 7.5
c-12.667 -18 -29.667 -35.333 -51 -52s-44.666 -31.167 -69.999 -43.5s-51.833 -22.333 -79.5 -30s-54.167 -11.5 -79.5 -11.5c-50 0 -89.833 12.667 -119.5 38s-44.5 61 -44.5 107c0 14.667 2.16699 29 6.5 43s10.833 26.333 19.5 37s19.834 19.167 33.501 25.5
s29.834 9.5 48.501 9.5c28 0 49.333 -9.83301 64 -29.5s22 -43.5 22 -71.5c91.333 8 162.333 55.333 213 142c52.667 -26 97.667 -56.5 135 -91.5s71 -79.167 101 -132.5v353l103 -103v-549c34 -19.333 65 -42.333 93 -69s50.667 -57.334 68 -92.001v804l103 -75v-123h236
v-103h-236v-827zM675.996 840c-25.333 -8 -49.834 -17.998 -73.501 -29.998s-47.5 -25.833 -71.5 -41.5s-48.833 -33.167 -74.5 -52.5l-83.5 -63c62.667 -32.667 118.834 -70.834 168.501 -114.501s94.5 -94.834 134.5 -153.501v455v0z" />
    <glyph glyph-name="bn_li" unicode="&#x98c;" horiz-adv-x="987" 
d="M657 242c20 13.333 40.5039 29.832 61.5039 49.499s40 41.334 57 65.001s31 48.5 42 74.5s16.5 51.667 16.5 77c0 32 -8.83301 61.167 -26.5 87.5s-46.5 49.166 -86.5 68.499c-36 17.333 -75.167 32.333 -117.5 45l-128 38c-43 12.667 -84.833 26.5 -125.5 41.5
s-77.667 33.167 -111 54.5s-61.333 46.833 -84 76.5s-37.334 65.834 -44.001 108.501c0 34 13.333 66.167 40 96.5s65 56.833 115 79.5l35 -51c-32 -6 -55 -17 -69 -33s-21 -33.667 -21 -53c0 -22.667 8.5 -45 25.5 -67s39.833 -38.667 68.5 -50
c45.333 -18 92.833 -34.667 142.5 -50s98.667 -31.666 147 -48.999s94.166 -36.833 137.499 -58.5s81.5 -47.834 114.5 -78.501s59.167 -67 78.5 -109s29 -92 29 -150c0 -32.667 -7.33301 -65.167 -22 -97.5s-34.167 -63.166 -58.5 -92.499s-52.5 -56.666 -84.5 -81.999
s-65.667 -47.333 -101 -66s-71 -33.334 -107 -44.001s-70 -16 -102 -16c23.333 32 41.833 68.5 55.5 109.5s20.5 82.5 20.5 124.5c0 26.667 -3 52.5 -9 77.5s-15.833 47.833 -29.5 68.5s-31.167 38.334 -52.5 53.001s-47 24.667 -77 30
c-14.667 0 -28.834 -3.33301 -42.501 -10s-26.834 -17.667 -39.501 -33c0 -12 4.5 -24.667 13.5 -38s28.5 -23 58.5 -29c13.333 0 24.833 -3 34.5 -9s17.834 -13.833 24.501 -23.5s11.5 -20.334 14.5 -32.001s4.5 -23.167 4.5 -34.5c0 -13.333 -2 -26.5 -6 -39.5
s-9.83301 -24.5 -17.5 -34.5s-17.334 -18.167 -29.001 -24.5s-25.167 -9.5 -40.5 -9.5c-23.333 0 -45.666 5.83301 -66.999 17.5s-40 27 -56 46s-28.833 40.5 -38.5 64.5s-14.5 48 -14.5 72c0 28 4.83301 54.833 14.5 80.5s24 48.5 43 68.5s42.5 36 70.5 48s60 18 96 18
c72.667 0 136 -31.333 190 -94c25.333 -28.667 42.166 -59.334 50.499 -92.001s12.5 -66 12.5 -100c0 -15.333 -0.666992 -30.333 -2 -45z" />
    <glyph glyph-name="bn_e" unicode="&#x98f;" horiz-adv-x="1188" 
d="M963 43c-6.66699 4 -13.0068 19.0039 -19.0068 45.0039c-8 36 -18.167 65 -30.5 87s-27 39.167 -44 51.5s-36.833 20.666 -59.5 24.999s-48.334 6.5 -77.001 6.5c-22 0 -46.333 -1.66699 -73 -5s-54.167 -7.16602 -82.5 -11.499s-56.666 -8.16602 -84.999 -11.499
s-55.166 -5 -80.499 -5c-48 0 -92 9 -132 27s-74.333 43.333 -103 76s-51 71.667 -67 117s-24 95.666 -24 150.999c0 48 7.16699 95.5 21.5 142.5s35.833 89.5 64.5 127.5l41 -43c-17.333 -28 -31.166 -59.667 -41.499 -95s-15.5 -70.333 -15.5 -105
c0 -35.333 5.16699 -68 15.5 -98s26.5 -56 48.5 -78s50.333 -39.167 85 -51.5s76.334 -18.5 125.001 -18.5c12.667 0 25.334 0.833008 38.001 2.5l42.5 5.5c15.667 2 33.834 3.83301 54.501 5.5s45.334 2.5 74.001 2.5c30 0 57.167 -2.5 81.5 -7.5s47 -12.5 68 -22.5
s41.167 -22.333 60.5 -37s39.333 -31.334 60 -50.001v746c0 12.667 -10 20 -30 22c-35.333 -9.33301 -69.5 -22 -102.5 -38s-63.167 -35.667 -90.5 -59s-50.833 -50.5 -70.5 -81.5s-33.834 -66.167 -42.501 -105.5c14 5.33301 28.333 8 43 8c30 0 54 -11 72 -33
s27 -52 27 -90c0 -16 -3.66699 -31 -11 -45s-17.333 -26.167 -30 -36.5s-27.5 -18.5 -44.5 -24.5s-35.167 -9 -54.5 -9c-27.333 0 -51.5 4.66699 -72.5 14s-38.667 21.833 -53 37.5s-25.166 33.334 -32.499 53.001s-11 40.167 -11 61.5c0 35.333 5.83301 70.833 17.5 106.5
s27.834 70.167 48.501 103.5s45 64.666 73 93.999s58.167 55.166 90.5 77.499s66 40.166 101 53.499s70.167 20.666 105.5 21.999c17.333 -1.33301 35.333 -7.5 54 -18.5s36.167 -24.333 52.5 -40s30.5 -32.5 42.5 -50.5s19.667 -35 23 -51v-999l-51 49v0z" />
    <glyph glyph-name="bn_ai" unicode="&#x990;" horiz-adv-x="1239" 
d="M1178 1034c0 -100 -44.6592 -177.666 -133.992 -232.999c-7.33301 -5.33301 -15 -13 -23 -23s-16.667 -21.667 -26 -35v-751l-47 49c-4.66699 27.333 -10.834 53.333 -18.501 78s-18.334 46.167 -32.001 64.5s-31.334 33 -53.001 44s-48.5 16.5 -80.5 16.5l-307 -23
c-52 4 -100.5 12 -145.5 24s-83.833 31.167 -116.5 57.5s-58.334 62 -77.001 107s-28 102.5 -28 172.5c0 48 6.5 95.833 19.5 143.5s34.5 90.5 64.5 128.5l37 -47c-14.667 -30 -26.834 -61.667 -36.501 -95s-14.5 -68 -14.5 -104c0 -30.667 5.5 -60 16.5 -88
s28.333 -52.833 52 -74.5s54.5 -38.834 92.5 -51.501s84 -19 138 -19c23.333 0 47.166 2 71.499 6s48.833 6 73.5 6c36 0 70.333 -2.66699 103 -8s62 -14.333 88 -27l100 -80v738c0 12.667 -10.333 20 -31 22c-36 -7.33301 -69.333 -20 -100 -38s-58.667 -39.667 -84 -65
s-47.833 -53.5 -67.5 -84.5s-36.167 -63.167 -49.5 -96.5c14 6.66699 28.333 10 43 10c12.667 0 25.167 -2.66699 37.5 -8s23.166 -13 32.499 -23s16.833 -22.167 22.5 -36.5s8.5 -30.166 8.5 -47.499c-3.33301 -40 -18.166 -70.5 -44.499 -91.5s-59.5 -31.5 -99.5 -31.5
c-54 0 -95.5 17.667 -124.5 53s-43.5 85.333 -43.5 150c8.66699 54 25.667 104.667 51 152s57.333 89.5 96 126.5s82.5 67.667 131.5 92s101.5 40.166 157.5 47.499c28.667 -6.66699 53 -17.167 73 -31.5s36.5 -31 49.5 -50s23 -39.667 30 -62s12.167 -44.833 15.5 -67.5h11
c14.667 0 27.667 2.83301 39 8.5s21 13.334 29 23.001s14 20.667 18 33s6 25.5 6 39.5c0 19.333 -3.5 37.833 -10.5 55.5s-19.333 34.667 -37 51s-41.334 32.166 -71.001 47.499s-67.5 30.333 -113.5 45c-197.333 64 -303 99.333 -317 106
c-109.333 54 -164 125.667 -164 215c1.33301 18.667 5.66602 37.167 12.999 55.5s16.5 35.833 27.5 52.5s23.333 31.667 37 45s27.5 24 41.5 32l55 -60c-14.667 -5.33301 -28 -10.833 -40 -16.5s-22.5 -12.5 -31.5 -20.5s-16.667 -18 -23 -30s-10.833 -27 -13.5 -45
c0 -48 113.333 -105.333 340 -172c76 -22.667 138.667 -45.667 188 -69s88.333 -48.333 117 -75s48.5 -55.667 59.5 -87s16.5 -66.333 16.5 -105l2 -25v0z" />
    <glyph glyph-name="bn_o" unicode="&#x993;" horiz-adv-x="1106" 
d="M752 1098c40 0 75.665 -7.00098 106.998 -21.001s57.833 -32.667 79.5 -56s38.334 -50.333 50.001 -81s17.5 -62.667 17.5 -96c0 -42 -7.16699 -82.5 -21.5 -121.5s-33.833 -72.833 -58.5 -101.5c30.667 -30 53.334 -63.333 68.001 -100s22 -74.334 22 -113.001
c0 -41.333 -7.33301 -79.666 -22 -114.999s-35.334 -66 -62.001 -92s-58.334 -46.5 -95.001 -61.5s-77.334 -22.5 -122.001 -22.5c-66 0 -126 14.333 -180 43s-102.833 66.834 -146.5 114.501s-82.667 102.167 -117 163.5s-65 125 -92 191s-51 131.833 -72 197.5
l-56.5 181.5l70 -37c19.333 -53.333 40.333 -108.5 63 -165.5s48.834 -112.833 78.501 -167.5s64 -106.334 103 -155.001s84.5 -91.667 136.5 -129c15.333 -10 30.833 -19.5 46.5 -28.5s32 -17 49 -24s35.167 -12.5 54.5 -16.5s40.333 -6 63 -6
c24.667 0 50.167 3.66699 76.5 11s50.166 18.666 71.499 33.999s38.833 34.5 52.5 57.5s20.5 50.167 20.5 81.5c0 21.333 -5.5 40.833 -16.5 58.5s-26.167 31.5 -45.5 41.5c-31.333 -27.333 -62.666 -41 -93.999 -41c-21.333 0 -39.5 3.33301 -54.5 10
s-27.333 15.834 -37 27.501s-17.167 25.334 -22.5 41.001s-9 32.5 -11 50.5c0 18 3.83301 34.667 11.5 50s17.667 28.5 30 39.5s26.5 19.667 42.5 26s32.333 9.5 49 9.5c12.667 0 24.667 -1.66699 36 -5s22.666 -9 33.999 -17c24.667 12 43.167 28.667 55.5 50
s18.5 49 18.5 83c0 19.333 -4.16699 35.833 -12.5 49.5s-19.333 24.834 -33 33.501s-29.167 15 -46.5 19s-35.333 6 -54 6c-25.333 0 -51.166 -4 -77.499 -12s-51.666 -18.833 -75.999 -32.5s-47 -29.667 -68 -48s-39.167 -37.833 -54.5 -58.5c8 -4 15.667 -10.333 23 -19
s14 -19 20 -31s10.833 -24.667 14.5 -38s5.5 -26.333 5.5 -39c0 -30 -10.167 -51.833 -30.5 -65.5s-44.833 -20.5 -73.5 -20.5c-46 0 -81.333 13.833 -106 41.5s-37 65.5 -37 113.5c0 34 6.83301 65.333 20.5 94s32 54.667 55 78s49.333 43.666 79 60.999
s60.334 31.833 92.001 43.5s63 20.5 94 26.5s59.5 9 85.5 9z" />
    <glyph glyph-name="bn_au" unicode="&#x994;" horiz-adv-x="1270" 
d="M1200 920c0 -62 -29.3281 -128.327 -87.9951 -198.994l-115 -117c20.667 -30 37.5 -65 50.5 -105s19.5 -80 19.5 -120c0 -44 -9.16699 -82.333 -27.5 -115s-42.166 -59.667 -71.499 -81s-62.5 -37.333 -99.5 -48s-73.833 -16 -110.5 -16
c-66.667 0 -127.334 14.167 -182.001 42.5s-104 66.166 -148 113.499s-83.333 101.5 -118 162.5s-65.334 124 -92.001 189s-50.167 129.833 -70.5 194.5s-38.166 124 -53.499 178l64 -32l55.5 -141.5c20.333 -50.333 43.5 -100.666 69.5 -150.999s55 -98.666 87 -144.999
s67.833 -87.333 107.5 -123s83.5 -64.167 131.5 -85.5s101 -32 159 -32c26.667 0 52.667 3.33301 78 10s47.833 17 67.5 31s35.5 31.833 47.5 53.5s18 47.5 18 77.5c0 11.333 -3.5 24.833 -10.5 40.5s-23.167 37.5 -48.5 65.5c-13.333 -17.333 -27.833 -29 -43.5 -35
s-36.834 -10 -63.501 -12c-34 0 -61.667 10.833 -83 32.5s-32 54.5 -32 98.5c0 18 3.66699 34.167 11 48.5s17.166 26.666 29.499 36.999s26.5 18.166 42.5 23.499s32.667 8 50 8c26 0 50 -6 72 -18c24.667 10 43.5 27.167 56.5 51.5s19.5 49.5 19.5 75.5
c0 14 -2.16699 27.667 -6.5 41s-11.333 25.166 -21 35.499s-22.167 18.5 -37.5 24.5s-34 9 -56 9c-30.667 0 -61.334 -2.66699 -92.001 -8s-59.5 -14 -86.5 -26s-51.667 -27.667 -74 -47s-40.5 -42.666 -54.5 -69.999c12 -12.667 21.833 -23.667 29.5 -33
s13.5 -17.666 17.5 -24.999s6.66699 -14.333 8 -21s2 -13.334 2 -20.001c0 -36.667 -10.5 -64.5 -31.5 -83.5s-45.833 -28.5 -74.5 -28.5c-16.667 0 -33.167 2.5 -49.5 7.5s-31 13.833 -44 26.5s-23.5 29.167 -31.5 49.5s-12 46.166 -12 77.499
c0 50.667 13.667 95.167 41 133.5s62.333 70.5 105 96.5s90.334 45.5 143.001 58.5s104.334 19.5 155.001 19.5c30.667 0 59.667 -6.33301 87 -19s51 -29.5 71 -50.5s35.833 -45.167 47.5 -72.5s17.5 -55.333 17.5 -84c0 -24.667 -4.83301 -49.167 -14.5 -73.5
s-25.834 -46.833 -48.501 -67.5c19.333 12 38.333 27.333 57 46s35.167 39 49.5 61s26 45 35 69s13.5 47.333 13.5 70c0 35.333 -8.33301 64.666 -25 87.999s-38.334 42.833 -65.001 58.5s-56.5 28.167 -89.5 37.5s-65.833 17.666 -98.5 24.999
c-80 17.333 -148.333 37.166 -205 59.499s-103.167 47.166 -139.5 74.499s-62.833 57 -79.5 89s-25 66.667 -25 104c0 16.667 4.33301 33.834 13 51.501s19.667 34.334 33 50.001s28.166 29.667 44.499 42s32.166 21.833 47.499 28.5c22 -18 40.333 -39 55 -63
c-32 -6 -54.667 -16.5 -68 -31.5s-20 -31.833 -20 -50.5c0 -22.667 8.66699 -45.5 26 -68.5s39.333 -41.167 66 -54.5l203 -65c62.667 -20 118.5 -40.833 167.5 -62.5s90.5 -47.834 124.5 -78.501s60.5 -67.334 79.5 -110.001s30.167 -95 33.5 -157l-2 -20v0z" />
    <glyph glyph-name="bn_ka" unicode="&#x995;" horiz-adv-x="1169" 
d="M713 963c48 0 94.998 -11.6689 140.998 -35.002s86.833 -54.333 122.5 -93s64.5 -83 86.5 -133s33 -101.667 33 -155c0 -27.333 -4.5 -52.5 -13.5 -75.5s-21.333 -43 -37 -60s-34 -30.167 -55 -39.5s-43.167 -14 -66.5 -14c-15.333 0 -30.5 3.5 -45.5 10.5
s-28.833 16.667 -41.5 29s-22.834 27 -30.501 44s-11.5 35.167 -11.5 54.5c0 16 3.66699 30.167 11 42.5s16.833 23 28.5 32s25 15.833 40 20.5s30.167 7 45.5 7c18 0 35.5 -4.16699 52.5 -12.5s30.833 -21.166 41.5 -38.499c1.33301 5.33301 2 9.66602 2 12.999v13
c0 34 -8.16699 66.167 -24.5 96.5s-37.833 57 -64.5 80s-56.5 41.333 -89.5 55s-66.5 20.5 -100.5 20.5h-12c-2.66699 0 -6.66699 -0.666992 -12 -2v-817l-39 37c-21.333 56.667 -46.166 109.834 -74.499 159.501s-62.166 93.834 -101.499 132.501
s-85.166 70.5 -137.499 95.5s-113.166 41.167 -182.499 48.5l-141 174c90 66.667 181.667 127.167 275 181.5s192.666 96.5 297.999 126.5v79h-642v103h1224v-103h-479v-77zM609.998 820.998c-69.333 -23.333 -133.167 -52.665 -191.5 -87.998s-116.5 -74.333 -174.5 -117
c39.333 -17.333 74.333 -34.5 105 -51.5s59.667 -37.333 87 -61s54.833 -52.834 82.5 -87.501s58.167 -78.334 91.5 -131.001v536v0z" />
    <glyph glyph-name="bn_kha" unicode="&#x996;" horiz-adv-x="995" 
d="M851 6c-14 12.667 -25.665 26.999 -34.998 42.999s-18 32.5 -26 49.5s-15.667 34.333 -23 52s-16 34.5 -26 50.5c-21.333 42.667 -49.333 80 -84 112s-72.834 59.167 -114.501 81.5s-85.334 40.5 -131.001 54.5s-89.834 24.667 -132.501 32l-170 211c26 -4 53 -6 81 -6
c36 0 75.333 4.5 118 13.5s82.5 22.167 119.5 39.5s67.833 38.333 92.5 63s37 53 37 85c0 17.333 -4.33301 34.166 -13 50.499s-21.334 30.166 -38.001 41.499c-40 -48 -87.667 -85.167 -143 -111.5s-116.333 -43.166 -183 -50.499c-19.333 0 -38 3.16699 -56 9.5
s-33.833 15.5 -47.5 27.5s-24.667 26.667 -33 44s-12.5 37.333 -12.5 60c0 32 10 57.667 30 77s45.333 30 76 32c34 0 59 -7.33301 75 -22s24 -38 24 -70c24.667 0.666992 46.5 6.83398 65.5 18.501s36.833 25.834 53.5 42.501s32.834 34 48.501 52s32.834 33.667 51.501 47
l69 -59c23.333 -19.333 44.833 -40.5 64.5 -63.5s36.5 -49.167 50.5 -78.5s23 -63.666 27 -102.999c0 -24 -6.83301 -49 -20.5 -75s-31.334 -50.667 -53.001 -74s-46.167 -43.833 -73.5 -61.5s-54.333 -29.834 -81 -36.501c62.667 -30 120.5 -69.167 173.5 -117.5
s98.5 -102.833 136.5 -163.5v1026l59 -37c2.66699 -10.667 4 -24 4 -40c0 -10.667 0.333008 -21.5 1 -32.5s2.33398 -21.5 5.00098 -31.5s7 -19 13 -27s14 -14 24 -18h170v-103h-173v-1034z" />
    <glyph glyph-name="bn_ga" unicode="&#x997;" horiz-adv-x="993" 
d="M848 -37l-103.004 92v609c-7.33301 42 -20.666 82.167 -39.999 120.5s-43.666 72.833 -72.999 103.5s-63.166 56.667 -101.499 78s-79.833 36 -124.5 44c-31.333 -4 -58 -8.83301 -80 -14.5s-41.5 -14 -58.5 -25s-32.333 -25.667 -46 -44s-27.5 -41.833 -41.5 -70.5
c19.333 4 39.166 7.66699 59.499 11s40.166 5 59.499 5c29.333 0 55.833 -4.5 79.5 -13.5s44 -20.667 61 -35s30 -31 39 -50s13.5 -38.5 13.5 -58.5c0 -28 -6.33301 -57.167 -19 -87.5s-28.5 -60.5 -47.5 -90.5s-39.333 -59 -61 -87l-59.5 -77l-119 133
c19.333 16 41.333 35.667 66 59s47.834 47 69.501 71s40 46.333 55 67s22.5 36.334 22.5 47.001c0 12 -4.5 23.5 -13.5 34.5s-22.833 16.5 -41.5 16.5c-8 0 -21.333 -4.5 -40 -13.5l-59 -29.5l-59 -29.5c-18.667 -9 -32.334 -13.5 -41.001 -13.5
c-17.333 2.66699 -33.166 8.66699 -47.499 18s-26.5 20.666 -36.5 33.999s-17.833 28 -23.5 44s-8.5 32.333 -8.5 49c2.66699 34 11.834 67.5 27.501 100.5s36.667 62.167 63 87.5s57.333 45.833 93 61.5s74.834 23.5 117.501 23.5c70 0 130.167 -11.667 180.5 -35
s93 -53.5 128 -90.5s63.833 -78.5 86.5 -124.5s41.667 -92 57 -138l-12 76c-4.66699 28.667 -9 57.5 -13 86.5s-7.33301 56.5 -10 82.5s-4 47 -4 63v284l62 -59c-1.33301 -5.33301 -2.33301 -11.333 -3 -18s-1 -13 -1 -19c0 -18.667 3.66699 -37.167 11 -55.5
s19.333 -32.5 36 -42.5h186v-102h-186v-1078z" />
    <glyph glyph-name="bn_gha" unicode="&#x998;" horiz-adv-x="965" 
d="M810 -4l-48 48.998l-41 107c-16.667 36 -39.334 69.833 -68.001 101.5s-61 59.334 -97 83.001s-74.667 42.5 -116 56.5s-82.333 21 -123 21h-21c-3.33301 0 -6.66602 -0.166992 -9.99902 -0.5s-6.66602 -0.833008 -9.99902 -1.5l-135 139l50.5 52.5l53.5 56.5
c18 18.667 36 36.334 54 53.001s35.667 31 53 43c-24.667 -12.667 -51.334 -19 -80.001 -19c-24.667 0 -49.167 5.16699 -73.5 15.5s-46.166 24.333 -65.499 42s-35 38 -47 61s-18 47.167 -18 72.5c0 19.333 2.66699 38.5 8 57.5s12.666 37.167 21.999 54.5h-124v103h1027
v-103h-191v-1044zM344 1040c-14 0 -27.5 -4.66992 -40.5 -14.0029s-24.5 -20.5 -34.5 -33.5s-18 -26.833 -24 -41.5s-9 -27.334 -9 -38.001v-2c4 -35.333 17.167 -61.166 39.5 -77.499s47.833 -24.5 76.5 -24.5c30 0 59.167 7.16699 87.5 21.5s50.5 33.833 66.5 58.5
l110 -109c-18.667 -11.333 -39.667 -26.666 -63 -45.999s-46.5 -40.166 -69.5 -62.499l-66 -67c-21 -22.333 -38.5 -42.166 -52.5 -59.499c36 -10 70.333 -23.833 103 -41.5s63.5 -38.5 92.5 -62.5s55.833 -50.5 80.5 -79.5s46.667 -59.5 66 -91.5v770h-363z" />
    <glyph glyph-name="bn_nga" unicode="&#x999;" horiz-adv-x="936" 
d="M901 332c0 -47.333 -8.16895 -89.668 -24.502 -127.001s-38.666 -69 -66.999 -95s-61.666 -46 -99.999 -60s-79.5 -21 -123.5 -21c-66 0 -125.667 13.5 -179 40.5s-100.666 63 -141.999 108s-77 97 -107 156s-55.167 120.333 -75.5 184s-35.833 127.5 -46.5 191.5
s-17.334 124 -20.001 180l54 -41c8 -49.333 19 -99.666 33 -150.999s31.333 -101 52 -149s45 -93.333 73 -136s60 -80 96 -112s76 -57.167 120 -75.5s92.667 -27.5 146 -27.5c30 0 58.667 5.66699 86 17s51.333 26.333 72 45s37 40.167 49 64.5s18 49.5 18 75.5
c0 21.333 -4.5 43 -13.5 65s-24.167 43.333 -45.5 64c-32 -38 -69.667 -72.667 -113 -104s-89 -53.333 -137 -66c-20 0.666992 -39.833 6.5 -59.5 17.5s-37.834 24.833 -54.501 41.5s-31 35.167 -43 55.5s-20.333 40.166 -25 59.499v248
c-58.667 42 -111.667 85.333 -159 130s-88 93 -122 145l152 41c10.667 -17.333 20.5 -35.5 29.5 -54.5s18.5 -37.833 28.5 -56.5s20.833 -36.5 32.5 -53.5s25.834 -31.833 42.501 -44.5c10 24.667 22 49 36 73s31.167 45.333 51.5 64s44.333 33.834 72 45.501
s59.834 17.5 96.501 17.5c26.667 0 51.5 -3.66699 74.5 -11s43 -18.166 60 -32.499s30.5 -32 40.5 -53s15 -45.167 15 -72.5c0 -24 -6.33301 -46.833 -19 -68.5s-30.5 -40.667 -53.5 -57s-50.833 -29.333 -83.5 -39s-68.667 -14.5 -108 -14.5
c-17.333 0 -32.5 1.66699 -45.5 5s-25.5 8.66602 -37.5 15.999v-185c0 -21.333 3.66699 -38.166 11 -50.499s21.666 -19.166 42.999 -20.499c23.333 4.66699 45 13.667 65 27s38.5 28.833 55.5 46.5s32.5 36.667 46.5 57s26.667 40.166 38 59.499
c32 -12 61.167 -30.333 87.5 -55s49 -53.334 68 -86.001s33.667 -68 44 -106s15.5 -76.333 15.5 -115zM685.998 964.998c-6 13.333 -19.6689 20.0039 -41.002 20.0039c-23.333 -2.66699 -45.666 -7.33398 -66.999 -14.001s-41.333 -15.834 -60 -27.501
s-35.167 -26.334 -49.5 -44.001s-25.833 -38.834 -34.5 -63.501c6.66699 -10 22.334 -15 47.001 -15c23.333 0 47.333 3 72 9s47.167 14.5 67.5 25.5s37 24 50 39s19.5 31.5 19.5 49.5c0 9.33301 -1.33301 16.333 -4 21z" />
    <glyph glyph-name="bn_ca" unicode="&#x99a;" horiz-adv-x="836" 
d="M244 1040c4 -28 12.4971 -53.5 25.4971 -76.5s29.333 -43.667 49 -62s41.834 -34.166 66.501 -47.499s50.667 -24.333 78 -33c26.667 -10.667 56.334 -20.5 89.001 -29.5s63.334 -20.667 92.001 -35s52.667 -33.166 72 -56.499s29 -54.666 29 -93.999
c0 -34 -6.83301 -70 -20.5 -108s-31.667 -75.833 -54 -113.5s-48 -73.834 -77 -108.501s-59 -65.167 -90 -91.5s-61.833 -47.333 -92.5 -63s-59 -23.5 -85 -23.5c-22 0 -43.833 7.16699 -65.5 21.5s-41.167 31.666 -58.5 51.999s-31.5 41.166 -42.5 62.499
s-16.5 39 -16.5 53v753h-165v103h894v-103h-628v0zM513.997 641c-31.333 16 -60.4971 32.001 -87.4971 48.001s-51.833 33 -74.5 51s-42.834 37.667 -60.501 59s-32.834 45.666 -45.501 72.999v-579c0 -16.667 2.66699 -29.5 8 -38.5s16.333 -15.167 33 -18.5
c34.667 10 69.667 26.833 105 50.5s67.166 52.5 95.499 86.5s51.5 71.833 69.5 113.5s27 85.5 27 131.5l-70 23v0z" />
    <glyph glyph-name="bn_cha" unicode="&#x99b;" horiz-adv-x="926" 
d="M997 -156c-134 142.667 -279.995 239.667 -437.995 291l-79.5 25.5c-25.667 8.33301 -51.5 15.833 -77.5 22.5s-52.5 12.667 -79.5 18s-55.833 9.33301 -86.5 12l-101 188c34 -11.333 66 -19.5 96 -24.5s61 -7.5 93 -7.5c18 0 41.167 2.5 69.5 7.5
s58.666 12.667 90.999 23s64.666 23 96.999 38s61.666 32.667 87.999 53s47.666 43 63.999 68s24.5 52.5 24.5 82.5c0 17.333 -4.33301 34.333 -13 51s-20.667 31.334 -36 44.001s-33.5 22.834 -54.5 30.501s-43.833 11.5 -68.5 11.5c5.33301 -12 8 -25.667 8 -41
c0 -30 -10.5 -60.167 -31.5 -90.5s-47.333 -57.666 -79 -81.999s-66 -44.666 -103 -60.999s-71.833 -25.833 -104.5 -28.5c-18 0 -36.333 3.83301 -55 11.5s-35.334 17.667 -50.001 30s-26.667 26.5 -36 42.5s-14 32.333 -14 49v432h-147v103h984v-103h-734
c6 -25.333 16.667 -46.833 32 -64.5s34.5 -32.5 57.5 -44.5s49 -21.333 78 -28s60.167 -11.334 93.5 -14.001l103 14c38 -1.33301 72.667 -11 104 -29s58.5 -41.5 81.5 -70.5s40.833 -61.833 53.5 -98.5s19 -74.334 19 -113.001c0 -42.667 -9 -80.334 -27 -113.001
s-41.667 -61.834 -71 -87.501s-62.333 -48.167 -99 -67.5s-74 -37.333 -112 -54c40 -14.667 77.833 -33 113.5 -55s71 -47.333 106 -76s71 -61 108 -97l120.5 -118l12 -80v0zM395.005 795l-48.998 23.501c-16.667 7.66699 -32.667 16.334 -48 26.001s-29.333 20.667 -42 33
s-23.334 27.166 -32.001 44.499v-295c0 -22.667 1.66699 -37.334 5 -44.001s11.666 -10 24.999 -10c18 0 38.5 6.33301 61.5 19s44.667 28.167 65 46.5s37.5 37.5 51.5 57.5s21 37.333 21 52v2l-2 26l-56 19v0z" />
    <glyph glyph-name="bn_ja" unicode="&#x99c;" horiz-adv-x="1212" 
d="M614 1006c-1.33301 -4 -1.99219 -7.33301 -1.99219 -10v-9c7.33301 -21.333 17.666 -39.5 30.999 -54.5s28.5 -27.167 45.5 -36.5s35.667 -16 56 -20s41.166 -6 62.499 -6c38 0 76 5 114 15s72.333 22.333 103 37l154 -158c-58.667 -68.667 -102 -139.334 -130 -212.001
s-42 -147.334 -42 -224.001c0 -104.667 26.333 -210.667 79 -318h-10c-8.66699 0 -17.834 1 -27.501 3s-18.834 4.33301 -27.501 7s-16.334 5.5 -23.001 8.5s-11.334 5.83301 -14.001 8.5l-10 39c-17.333 68.667 -32.666 135.334 -45.999 200.001s-20 130.334 -20 197.001
c0 46 4.33301 92 13 138s24.334 93 47.001 141c-11.333 -1.33301 -21.333 -2.33301 -30 -3s-17.334 -1 -26.001 -1c-38.667 0 -78.167 4.5 -118.5 13.5s-78.666 22.167 -114.999 39.5s-69.5 38.833 -99.5 64.5s-54 55.167 -72 88.5c-10 0 -22.333 -7.33301 -37 -22
s-29.834 -32.834 -45.501 -54.501s-30.167 -45 -43.5 -70s-23.333 -47.833 -30 -68.5l-2 -22c0 -48 25.333 -72 76 -72c17.333 1.33301 34.666 5 51.999 11s34.333 13.333 51 22l50 26.5c16.667 9 33.334 17.167 50.001 24.5c3.33301 1.33301 6 2.33301 8 3s4.66699 1 8 1
c4.66699 0 9.33398 -1.33301 14.001 -4h2c21.333 -15.333 41 -33.666 59 -54.999s33.5 -44.166 46.5 -68.499s23 -49.666 30 -75.999s10.5 -52.5 10.5 -78.5c0 -36.667 -6 -71.834 -18 -105.501s-29.667 -63.5 -53 -89.5s-52.333 -46.833 -87 -62.5
s-74.334 -23.5 -119.001 -23.5c-52.667 4 -100.5 16.667 -143.5 38s-81.5 48.833 -115.5 82.5s-63.5 72.334 -88.5 116.001s-45.667 90 -62 139s-28.5 99.5 -36.5 151.5s-12 103.333 -12 154c0 36 2 71 6 105c10 -11.333 19 -19.166 27 -23.499s14.667 -9.16602 20 -14.499
s9.66602 -13 12.999 -23s5.66602 -26.333 6.99902 -49c-0.666992 -6.66699 -1.16699 -13.167 -1.5 -19.5s-0.5 -12.833 -0.5 -19.5c0 -53.333 9 -106.666 27 -159.999s43.5 -102 76.5 -146s72.667 -80.5 119 -109.5s97.833 -45.5 154.5 -49.5c20 0 42.667 3.33301 68 10
s49.166 16.167 71.499 28.5s41.166 27.166 56.499 44.499s23 36.666 23 57.999c0 7.33301 -1.16699 15.666 -3.5 24.999s-5.66602 18.166 -9.99902 26.499s-10 15.5 -17 21.5s-15.167 9.66699 -24.5 11c-12 -3.33301 -25.5 -7.83301 -40.5 -13.5l-46.5 -17
c-16 -5.66699 -31.833 -10.5 -47.5 -14.5s-29.5 -6 -41.5 -6c-33.333 0 -65 7.66699 -95 23s-56.333 35.166 -79 59.499s-40.667 52 -54 83s-20 62.5 -20 94.5c0 44 13 87 39 129s62.333 87 109 135h-436v103h1283v-103h-575z" />
    <glyph glyph-name="bn_jha" unicode="&#x99d;" horiz-adv-x="1130" 
d="M1000 141l-45.999 49c-15.333 66 -41 126.5 -77 181.5s-84.333 98.5 -145 130.5v-482l-50 48l-39 92c-22.667 42.667 -50.834 84.5 -84.501 125.5s-69.667 77.5 -108 109.5s-77.5 57.833 -117.5 77.5s-77.333 29.5 -112 29.5h-17c-4 0 -9.33301 -0.666992 -16 -2
l-137 172c54.667 40 105.334 74.667 152.001 104s92.5 56 137.5 80s90.833 46.5 137.5 67.5l151 65.5v51h-651v103h754v-525c36 -20 67.167 -45.333 93.5 -76s50.166 -64 71.499 -100v891l49 -41c0.666992 -16 2.33398 -32.833 5.00098 -50.5s7.16699 -34 13.5 -49
s15.166 -27.333 26.499 -37s26.333 -14.5 45 -14.5h10c2 0 5.66699 0.666992 11 2h117v-103h-174v-899zM629.001 829c-31.333 -9.33301 -62.502 -21.334 -93.502 -36.001s-61.5 -30.667 -91.5 -48s-59.667 -35.666 -89 -54.999l-85 -57
c40.667 -17.333 77.834 -37.833 111.501 -61.5s64.834 -50.167 93.501 -79.5s55.5 -60.833 80.5 -94.5s49.5 -69.167 73.5 -106.5v538v0z" />
    <glyph glyph-name="bn_nya" unicode="&#x99e;" horiz-adv-x="1581" 
d="M1502 236c-14.667 -19.333 -31.6611 -34.166 -50.9941 -44.499s-42 -15.5 -68 -15.5c-37.333 2.66699 -73.5 12 -108.5 28s-68.5 35.667 -100.5 59s-62.5 49.166 -91.5 77.499l-82.5 83.5v-430l-52 51c-9.33301 30 -18.5 57.333 -27.5 82s-20.5 46 -34.5 64
s-32.167 32 -54.5 42s-51.166 15 -86.499 15c-26 0 -53.5 -1.5 -82.5 -4.5s-57.5 -6.33301 -85.5 -10s-54.833 -7 -80.5 -10s-47.834 -4.5 -66.501 -4.5c-58.667 0.666992 -109.667 11.834 -153 33.501s-79.333 50 -108 85s-50 74.833 -64 119.5s-21 90.334 -21 137.001
c0 48 6.83301 94.333 20.5 139s35.5 85 65.5 121l41 -41c-18.667 -26.667 -32.834 -56 -42.501 -88s-14.5 -64 -14.5 -96c0 -28 4 -55.333 12 -82s20.667 -50.5 38 -71.5s39.5 -38.333 66.5 -52s59.167 -21.834 96.5 -24.501c29.333 -6 59.666 -10 90.999 -12
s63 -3.66699 95 -5s63.833 -3.33301 95.5 -6s62.167 -7.33398 91.5 -14.001s57.333 -16.334 84 -29.001s51 -30 73 -52v671c-7.33301 30 -15.5 49.167 -24.5 57.5s-20.5 12.5 -34.5 12.5c-32 -10 -62.5 -23.833 -91.5 -41.5s-55.5 -38.167 -79.5 -61.5
s-44.833 -49.333 -62.5 -78s-30.834 -59 -39.501 -91c14 5.33301 27 8 39 8c14.667 0 28.167 -3.16699 40.5 -9.5s23.166 -14.666 32.499 -24.999s16.666 -22.5 21.999 -36.5s8 -28.667 8 -44v-4c-4.66699 -40 -17.667 -69.167 -39 -87.5s-45.333 -27.5 -72 -27.5
c-42 0 -75.833 6 -101.5 18s-45.667 27.167 -60 45.5s-23.833 38.666 -28.5 60.999s-7 43.833 -7 64.5c0 30.667 6 61.834 18 93.501s28.167 62.5 48.5 92.5s44.5 58.5 72.5 85.5s57.833 51.167 89.5 72.5s64.5 39.166 98.5 53.499s67.667 23.833 101 28.5
c24 0 46.667 -5.16699 68 -15.5s39.666 -23.333 54.999 -39s27.5 -33 36.5 -52s13.5 -36.833 13.5 -53.5v-229c14.667 30.667 32.667 62.167 54 94.5s45.5 62.166 72.5 89.499s56.667 50.166 89 68.499s66.5 28.833 102.5 31.5c34 -2.66699 64.667 -12 92 -28
s50.666 -36 69.999 -60s34.333 -51.167 45 -81.5s16 -61.166 16 -92.499c0 -32.667 -6.33301 -64.5 -19 -95.5s-33 -57.833 -61 -80.5c20.667 -35.333 38.834 -73.833 54.501 -115.5s23.5 -82.5 23.5 -122.5c0 -21.333 -2.83301 -42.166 -8.5 -62.499
s-15.167 -40.166 -28.5 -59.499zM1447.01 375c12.667 18.667 19.9961 38.335 21.9961 59.002c0 4.66699 -0.666992 9.5 -2 14.5s-4 10.667 -8 17s-10 14.166 -18 23.499s-19 21 -33 35c-15.333 -13.333 -33.166 -23.5 -53.499 -30.5s-40.833 -10.5 -61.5 -10.5
c-14.667 0 -29.167 2.16699 -43.5 6.5s-27 10.833 -38 19.5s-20 19.667 -27 33s-10.5 29.333 -10.5 48c0 14 3.33301 28 10 42s15.5 26.333 26.5 37s23.5 19.334 37.5 26.001s28.333 10 43 10c14.667 -2.66699 30.167 -5.83398 46.5 -9.50098s32.166 -5.5 47.499 -5.5
c12.667 0 23.334 3 32.001 9s15.5 13.333 20.5 22s8.5 18 10.5 28s3 19 3 27c0 14.667 -2.66699 28.667 -8 42s-13 25.166 -23 35.499s-22.5 18.5 -37.5 24.5s-31.833 9 -50.5 9c-36 -3.33301 -72 -14.166 -108 -32.499s-69.167 -41.5 -99.5 -69.5
s-56.166 -59.167 -77.499 -93.5s-35.666 -69.5 -42.999 -105.5c4.66699 -33.333 16.334 -65.833 35.001 -97.5s42 -59.834 70 -84.501s59.5 -44.5 94.5 -59.5s71.167 -22.5 108.5 -22.5c62.667 0 107.667 17.667 135 53z" />
    <glyph glyph-name="bn_tta" unicode="&#x99f;" horiz-adv-x="848" 
d="M216 350c0 -24.667 8.33398 -43.1738 25.001 -55.5068s37.334 -18.5 62.001 -18.5c12.667 0 28.334 4.83301 47.001 14.5s38.5 22.5 59.5 38.5s41.833 34.667 62.5 56s39.5 43.5 56.5 66.5s31.167 46.333 42.5 70s17.666 45.834 18.999 66.501
c-5.33301 -2 -11 -3.16699 -17 -3.5s-12 -0.5 -18 -0.5c-16.667 0 -32.834 3 -48.501 9s-29.667 14.167 -42 24.5s-22.166 22.666 -29.499 36.999s-11 29.5 -11 45.5c0 22.667 4.83301 42.834 14.5 60.501s21.5 32.334 35.5 44.001s29.167 20.5 45.5 26.5s31.5 9 45.5 9
c26.667 0 50.834 -6.5 72.501 -19.5s40.167 -30.167 55.5 -51.5s27.166 -45.666 35.499 -72.999s12.5 -55.333 12.5 -84c0 -54 -12.333 -106 -37 -156s-56.5 -95.333 -95.5 -136s-82.333 -75.334 -130 -104.001s-94.5 -48.667 -140.5 -60l-49 -4
c-24 4 -46.667 14.5 -68 31.5s-40 37.167 -56 60.5s-28.667 48.5 -38 75.5s-14 52.167 -14 75.5v645h-151v103h675l2 41v4c0 32 -12.667 56.333 -38 73s-59 25 -101 25c-32 0 -61.5 -0.333008 -88.5 -1s-52.5 -1.66699 -76.5 -3l-70.5 -4l-71.5 -4
c-34 0 -68.167 5.16699 -102.5 15.5s-65.333 25.333 -93 45s-50.5 43.334 -68.5 71.001s-27.667 58.834 -29 93.501c0.666992 13.333 2.16699 26.5 4.5 39.5s6.16602 25 11.499 36s12.666 20.333 21.999 28s21.666 12.834 36.999 15.501c0 -6 0.166992 -12.167 0.5 -18.5
s1.83301 -12.5 4.5 -18.5c-9.33301 -8 -15.833 -16.167 -19.5 -24.5s-5.5 -17.166 -5.5 -26.499c0 -15.333 4 -30.166 12 -44.499s18.833 -26.833 32.5 -37.5s29.334 -19.167 47.001 -25.5s36.167 -9.5 55.5 -9.5l340 19c39.333 0 76.833 -6 112.5 -18s67 -29 94 -51
s48.5 -48.667 64.5 -80s24 -66.333 24 -105v-35h156v-103h-677v-690z" />
    <glyph glyph-name="bn_ttha" unicode="&#x9a0;" horiz-adv-x="829" 
d="M504 1040c32 -31.333 60.8369 -67.3301 86.5039 -107.997s47.667 -83.667 66 -129s32.333 -92.333 42 -141s14.5 -96.667 14.5 -144c0 -52 -6.5 -102 -19.5 -150s-33.167 -91.333 -60.5 -130s-62.666 -71.334 -105.999 -98.001s-95.333 -44.667 -156 -54h-17
c-42.667 0 -82.5 9.16699 -119.5 27.5s-69.333 42.833 -97 73.5s-49.334 65.667 -65.001 105s-23.5 80 -23.5 122c0 30 5.66699 62.667 17 98c60 18.667 110.833 44.167 152.5 76.5s75.167 66.833 100.5 103.5s43.666 73 54.999 109s17 67.333 17 94
c0 23.333 -1.5 47.166 -4.5 71.499s-8.16699 48.833 -15.5 73.5h-401v103h337v26c-2 7.33301 -8 18 -18 32s-22.333 32.667 -37 56c-14 21.333 -27.333 44.666 -40 69.999s-23.834 51.333 -33.501 78s-17.334 53.667 -23.001 81s-8.5 53.666 -8.5 78.999
c0 38.667 8 75.667 24 111s43.667 65.666 83 90.999l121 -104c-24 -10.667 -44.5 -20.5 -61.5 -29.5s-31.167 -19.5 -42.5 -31.5s-20 -26.5 -26 -43.5s-10 -38.833 -12 -65.5v-6c0 -25.333 7.5 -53.666 22.5 -84.999s33.167 -62.666 54.5 -93.999s43.666 -61.5 66.999 -90.5
l61 -74.5h426v-103h-360v0zM504.004 813.003c0 -46 -8.00195 -91.334 -24.002 -136.001s-38.167 -86.167 -66.5 -124.5s-61.666 -72.5 -99.999 -102.5s-79.5 -53 -123.5 -69c-5.33301 -3.33301 -9 -9.5 -11 -18.5s-3 -22.5 -3 -40.5c0 -25.333 4 -47.166 12 -65.499
s18.667 -33.5 32 -45.5s28.833 -20.833 46.5 -26.5s36.167 -8.5 55.5 -8.5c50.667 0 94.834 13 132.501 39s69.167 58.5 94.5 97.5s44.333 81.167 57 126.5s19 87.333 19 126c0 60.667 -10.667 121 -32 181s-53 115 -95 165l6 -98v0z" />
    <glyph glyph-name="bn_dda" unicode="&#x9a1;" horiz-adv-x="1071" 
d="M509 643c26.667 2.66699 52.6709 11.502 78.0039 26.502s49.5 33.167 72.5 54.5s44 44 63 68s35.5 46.667 49.5 68c32 -17.333 59.667 -38.333 83 -63s42.666 -51.834 57.999 -81.501s26.666 -60.834 33.999 -93.501s11 -66 11 -100
c0 -49.333 -7.83301 -97.666 -23.5 -144.999s-38.334 -89.666 -68.001 -126.999s-66.167 -67.666 -109.5 -90.999s-92.333 -35.333 -147 -36l-28 2c-56.667 0 -108.834 13 -156.501 39s-90.5 61 -128.5 105s-71.167 94.667 -99.5 152s-52 117.333 -71 180
s-33.167 126 -42.5 190s-14 124.667 -14 182v6l59 -33c6 -43.333 14 -88.833 24 -136.5s23 -95 39 -142s35.333 -92 58 -135s49.834 -81.167 81.501 -114.5s68.167 -60.333 109.5 -81s88.333 -32 141 -34c40 0.666992 78 7.66699 114 21s67.667 31.333 95 54
s49.166 48.834 65.499 78.501s24.5 61.167 24.5 94.5c0 22.667 -4.33301 46 -13 70s-22.334 47.667 -41.001 71c-11.333 -19.333 -27.333 -40.833 -48 -64.5s-43.667 -45.834 -69 -66.501s-52.166 -37.834 -80.499 -51.501s-55.833 -20.5 -82.5 -20.5
c-19.333 0 -35.666 3.16699 -48.999 9.5s-25.333 15.166 -36 26.499s-20.334 25.166 -29.001 41.499s-17.667 34.5 -27 54.5v419h-426v103h1140v-103h-611v-397z" />
    <glyph glyph-name="bn_ddha" unicode="&#x9a2;" horiz-adv-x="850" 
d="M255 352c0 -17.333 3.83203 -32.8281 11.499 -46.4951s21.834 -21.167 42.501 -22.5c29.333 7.33301 59.5 20.666 90.5 39.999s59.667 42.833 86 70.5s48.666 58.5 66.999 92.5s29.5 69.333 33.5 106c-8.66699 -2 -16.167 -3.83301 -22.5 -5.5s-13.166 -2.5 -20.499 -2.5
c-18.667 0 -35.167 4 -49.5 12s-26.5 18.333 -36.5 31s-17.667 27.167 -23 43.5s-8 33.166 -8 50.499c0 15.333 2.5 30.333 7.5 45s13 27.834 24 39.501s25.333 21 43 28s39.167 10.5 64.5 10.5c26 0 49.667 -7 71 -21s39.5 -32 54.5 -54s26.5 -46.667 34.5 -74
s12 -54.333 12 -81c0 -52.667 -11 -104.834 -33 -156.501s-51.667 -98.834 -89 -141.501s-80.333 -78.834 -129 -108.501s-100 -48.834 -154 -57.501c-30 0 -60.5 14.833 -91.5 44.5s-60.5 68.5 -88.5 116.5v729h-182v103h909v-103h-624v-688z" />
    <glyph glyph-name="bn_nna" unicode="&#x9a3;" horiz-adv-x="922" 
d="M758 2l-111 114.995v573c0 36.667 -7.16699 73.5 -21.5 110.5s-34.166 70.333 -59.499 100s-55 53.834 -89 72.501s-70.667 28 -110 28c-24 0 -47 -5.16699 -69 -15.5s-41.333 -24.5 -58 -42.5s-29.834 -39 -39.501 -63s-14.5 -49.667 -14.5 -77
c0 -23.333 2.16699 -44.666 6.5 -63.999s10.833 -36.166 19.5 -50.499s19.667 -25.666 33 -33.999s28.666 -12.833 45.999 -13.5l-8 51c0 29.333 9.83301 50.666 29.5 63.999s42.5 20 68.5 20c11.333 0 22 -0.666992 32 -2s19.5 -4.66602 28.5 -9.99902
s17.667 -13.333 26 -24s16.5 -25.334 24.5 -44.001l8 -45c0 -18 -4.83301 -35.5 -14.5 -52.5s-23.167 -32 -40.5 -45s-38.166 -23.5 -62.499 -31.5s-50.833 -12 -79.5 -12c-35.333 0 -68.5 8.33301 -99.5 25s-58.167 39.5 -81.5 68.5s-41.666 63.167 -54.999 102.5
s-20 82 -20 128c0 42.667 7.66699 83.167 23 121.5s36.666 71.833 63.999 100.5s60.166 51.334 98.499 68.001s80.166 25 125.499 25c30 0 57.333 -5.5 82 -16.5s47.167 -25.5 67.5 -43.5s38.833 -39 55.5 -63s32.334 -48.833 47.001 -74.5s28.667 -51.667 42 -78
s26.666 -51.166 39.999 -74.499c-3.33301 20.667 -6.83301 43.667 -10.5 69l-10.5 75c-3.33301 24.667 -6.16602 47.5 -8.49902 68.5s-3.5 37.5 -3.5 49.5v182v49c0 8.66699 -0.166992 17 -0.5 25s-0.833008 16 -1.5 24c12.667 -9.33301 23.167 -20.5 31.5 -33.5
s15.833 -26.833 22.5 -41.5s12.834 -29 18.501 -43s12.5 -26.333 20.5 -37l55 -43h145v-103h-192v-1038z" />
    <glyph glyph-name="bn_ta" unicode="&#x9a4;" horiz-adv-x="1130" 
d="M-26 1143h1200v-103h-1200v103zM1059 522c0 -51.333 -9.50098 -100.169 -28.501 -146.502s-45.167 -87 -78.5 -122s-72.333 -62.833 -117 -83.5s-93 -31 -145 -31c-64 4.66699 -121.167 18.667 -171.5 42s-95.333 53.666 -135 90.999s-74.667 79.833 -105 127.5
s-57.5 98.5 -81.5 152.5s-45.5 109.333 -64.5 166s-36.833 112.334 -53.5 167.001l-30 96l60 -25l63 -138.5c20.667 -47.667 42.5 -94.667 65.5 -141s48 -90.5 75 -132.5s57.667 -79.833 92 -113.5s73.333 -61.5 117 -83.5s93.834 -36 150.501 -42
c34.667 0 69.5 8.5 104.5 25.5s66.667 39.167 95 66.5s51.333 58.333 69 93s26.5 70 26.5 106c0 26 -4.5 52 -13.5 78s-21.833 49.167 -38.5 69.5s-36.334 37 -59.001 50s-48 19.5 -76 19.5c-17.333 0 -35.666 -3.33301 -54.999 -10
c13.333 -15.333 23.166 -33.166 29.499 -53.499s9.5 -40.833 9.5 -61.5c0 -21.333 -3.5 -41.166 -10.5 -59.499s-17.167 -34.333 -30.5 -48s-30.166 -24.334 -50.499 -32.001s-43.833 -11.5 -70.5 -11.5c-26 0 -49.5 5 -70.5 15s-39 23.833 -54 41.5
s-26.667 38.834 -35 63.501s-12.5 52 -12.5 82c0 28.667 6.66699 55.834 20 81.501s30.833 48 52.5 67s46.167 34.167 73.5 45.5s55 17 83 17c64 0 120.833 -12.833 170.5 -38.5s91.5 -58.834 125.5 -99.501s59.833 -86.5 77.5 -137.5s26.5 -101.833 26.5 -152.5z" />
    <glyph glyph-name="bn_tha" unicode="&#x9a5;" horiz-adv-x="977" 
d="M831 -10c-30.667 52.667 -65.165 104.673 -103.498 156.006s-81.833 97.333 -130.5 138s-103.167 73.5 -163.5 98.5s-127.833 37.5 -202.5 37.5l-161 213c3.33301 -0.666992 6.33301 -1.16699 9 -1.5s5.66699 -0.5 9 -0.5h21c26.667 0 55.834 3.5 87.501 10.5
s63.167 16.833 94.5 29.5s61.666 27.667 90.999 45s55.333 36.5 78 57.5s40.834 43.333 54.501 67s20.5 47.834 20.5 72.501c0 16.667 -3.5 32.5 -10.5 47.5s-16.5 28.167 -28.5 39.5s-25.833 20.166 -41.5 26.499s-31.834 9.5 -48.501 9.5
c-15.333 -2.66699 -31 -6.83398 -47 -12.501s-31.833 -12.667 -47.5 -21s-30.5 -17.5 -44.5 -27.5s-26 -20.333 -36 -31c11.333 -13.333 20.5 -24.833 27.5 -34.5s12.5 -18 16.5 -25s6.66699 -13.333 8 -19s2 -10.834 2 -15.501c0 -14.667 -3.5 -29 -10.5 -43
s-16.333 -26.5 -28 -37.5s-25.334 -19.833 -41.001 -26.5s-32.167 -10 -49.5 -10c-22 0 -41.167 4.16699 -57.5 12.5s-30 19.166 -41 32.499s-19.167 28.666 -24.5 45.999s-8 35 -8 53c0 42.667 11.167 80.667 33.5 114s50.666 61.166 84.999 83.499
s72.166 39.333 113.499 51s80.666 17.5 117.999 17.5h8c30.667 0 61 -7.33301 91 -22s56.667 -34.667 80 -60s42.333 -54.666 57 -87.999s22 -68.333 22 -105c-4 -42 -11.667 -79.333 -23 -112s-26.833 -62.334 -46.5 -89.001s-43.5 -51 -71.5 -73s-61 -43.333 -99 -64
c27.333 -10 56.833 -25.667 88.5 -47s62.834 -45.5 93.501 -72.5s59.667 -55.5 87 -85.5s50.333 -58.333 69 -85v1093l55 -65c2 -12 3.83301 -24.833 5.5 -38.5s3.83398 -26.5 6.50098 -38.5s6 -22.333 10 -31s9.66699 -14.334 17 -17.001h179v-103h-173v-1050z" />
    <glyph glyph-name="bn_da" unicode="&#x9a6;" horiz-adv-x="979" 
d="M207 608l108.002 90.001c35.333 30 71.666 58.5 108.999 85.5s76.333 51.833 117 74.5s85 41.667 133 57l178 -133c-46 -78.667 -79.667 -156.667 -101 -234s-32 -156.333 -32 -237c0 -106.667 18.333 -213 55 -319l-72 31c-25.333 68.667 -46.333 140 -63 214
s-25 149.333 -25 226c0 85.333 13 168 39 248c-54 -18.667 -103.333 -43.834 -148 -75.501s-84.334 -66 -119.001 -103s-64.167 -74.833 -88.5 -113.5s-42.833 -74 -55.5 -106l-138 142v585h-134v103h1054v-103h-817v-432z" />
    <glyph glyph-name="bn_dha" unicode="&#x9a7;" horiz-adv-x="920" 
d="M771 -37l-27.998 49.0049c-18 55.333 -45.333 109.333 -82 162s-79.334 99.667 -128.001 141s-101.5 74.666 -158.5 99.999s-114.833 38.666 -173.5 39.999l-121 161l258 193c-32 0 -60.833 4.33301 -86.5 13s-47.5 21 -65.5 37s-32.167 35.167 -42.5 57.5
s-16.5 47.166 -18.5 74.499c0 9.33301 1.66699 23.166 5 41.499s11.166 36.5 23.499 54.5s30.833 33.833 55.5 47.5s58.667 20.5 102 20.5c28 0 52.5 -8.5 73.5 -25.5s31.5 -42.5 31.5 -76.5c0 -20 -8.5 -35 -25.5 -45s-41.5 -15 -73.5 -15c-6 0 -12.833 1.33301 -20.5 4
s-19.167 9.66699 -34.5 21c-10.667 -6.66699 -16 -25.667 -16 -57c0 -14.667 3.83301 -28.5 11.5 -41.5s17.667 -24.333 30 -34s26.5 -17.334 42.5 -23.001s32.333 -8.5 49 -8.5c16 0 27 1.33301 33 4l256 150v135h274v-103h-171v-1077zM668.002 821.005
c-68.667 -28 -133.332 -61.668 -193.999 -101.001s-118.334 -84 -173.001 -134c36 -17.333 71.333 -37.166 106 -59.499s67.834 -47 99.501 -74s61.167 -56.167 88.5 -87.5s51.666 -65 72.999 -101v557v0z" />
    <glyph glyph-name="bn_na" unicode="&#x9a8;" horiz-adv-x="918" 
d="M777 -29l-39.999 52.001c-2.66699 41.333 -7.5 85.166 -14.5 131.499s-16.833 92.666 -29.5 138.999s-29 91.166 -49 134.499s-44.167 82.666 -72.5 117.999s-61.666 65.333 -99.999 90s-82.166 41.334 -131.499 50.001l-8 -18c19.333 -20.667 33.666 -42.667 42.999 -66
s14 -46.666 14 -69.999c0 -18 -3 -35 -9 -51s-15.333 -30.333 -28 -43s-29 -22.667 -49 -30s-44 -11 -72 -11c-25.333 0 -48.833 4.16699 -70.5 12.5s-40.334 20.5 -56.001 36.5s-27.834 36 -36.501 60s-13 52 -13 84c0 38 7.33301 71.833 22 101.5s34.5 54.5 59.5 74.5
s54.167 35.167 87.5 45.5s68.666 15.5 105.999 15.5c26 0 51.667 -5.5 77 -16.5s49.333 -25.667 72 -44s44.167 -39.166 64.5 -62.499s38.833 -47.333 55.5 -72s31.334 -49 44.001 -73s23 -45.667 31 -65v546h-699v103h979v-103h-177v-1069z" />
    <glyph glyph-name="bn_pa" unicode="&#x9aa;" horiz-adv-x="1096" 
d="M963 -12l-102.996 92v522c-8.66699 30 -17.834 58 -27.501 84s-19.834 49.333 -30.501 70s-22 37.667 -34 51s-24.333 22.333 -37 27l-350 -349l-145 54l88 94c12 10.667 18 29.667 18 57c0 12 -1.5 24.167 -4.5 36.5s-7.5 23.5 -13.5 33.5s-13.167 18 -21.5 24
s-17.833 9 -28.5 9c-8 0 -14 -0.833008 -18 -2.5l-16.5 -7c-7 -3 -17.667 -7 -32 -12s-35.833 -10.833 -64.5 -17.5c-5.33301 0 -12.666 1.66699 -21.999 5s-18.5 8.5 -27.5 15.5s-16.667 15.333 -23 25s-9.5 21.167 -9.5 34.5c33.333 93.333 82.666 165.333 147.999 216
s150.666 76 255.999 76c54.667 0 104.667 -12.167 150 -36.5s85.5 -55.833 120.5 -94.5s64.5 -82.167 88.5 -130.5s42.333 -96.833 55 -145.5l-19 258v301c7.33301 -5.33301 15.333 -10 24 -14s15 -10.333 19 -19v-10c0 -27.333 7.16699 -47.5 21.5 -60.5
s33.166 -23.5 56.499 -31.5h139v-103h-157v-1052zM645.004 942c-20.667 24.667 -45.335 43.167 -74.002 55.5s-60 18.5 -94 18.5c-23.333 0 -46.166 -2.83301 -68.499 -8.5s-43.166 -14 -62.499 -25s-36.5 -24.667 -51.5 -41s-26.5 -35.166 -34.5 -56.499
c24 0 45 -4.83301 63 -14.5s32.833 -22.834 44.5 -39.501s20.5 -36.167 26.5 -58.5s9 -45.833 9 -70.5l242 240v0z" />
    <glyph glyph-name="bn_pha" unicode="&#x9ab;" horiz-adv-x="1253" 
d="M342 1040c24.667 -16.667 49.335 -35.8311 74.002 -57.498s48.667 -44.5 72 -68.5s45.666 -48.833 66.999 -74.5s41 -50.834 59 -75.501l-252 -211c35.333 -15.333 70.166 -33 104.499 -53s67 -42.5 98 -67.5s59.667 -52.333 86 -82s49.166 -61.167 68.499 -94.5v705
c30.667 8 61.334 12 92.001 12c50.667 0 98.334 -8.16699 143.001 -24.5s83.5 -39.5 116.5 -69.5s59.167 -66 78.5 -108s29 -88.667 29 -140c0 -26.667 -4.16699 -51 -12.5 -73s-20 -41 -35 -57s-33 -28.333 -54 -37s-44.5 -13 -70.5 -13c-36 0 -64.833 11.167 -86.5 33.5
s-32.5 52.5 -32.5 90.5c0 14.667 3.16699 27.834 9.5 39.501s14.666 21.834 24.999 30.501s22 15.334 35 20.001s26.5 7 40.5 7c13.333 0 26.833 -2.83301 40.5 -8.5s29.5 -15.834 47.5 -30.501c2.66699 -2.66699 5.66699 -4 9 -4c4 0 6.33301 2.83301 7 8.5
s1 13.834 1 24.501c0 26 -6.33301 48.5 -19 67.5s-28.834 34.667 -48.501 47s-41.834 21.5 -66.501 27.5s-49 9 -73 9c-28.667 0 -53 -3.33301 -73 -10v-803l-42 37c-23.333 52 -51.666 101 -84.999 147s-71.5 86.5 -114.5 121.5s-90.667 62.833 -143 83.5
s-108.833 31.667 -169.5 33l-118 170l288 258c-6 3.33301 -12.833 8.16602 -20.5 14.499l-24 19c-8.33301 6.33301 -16.5 12.166 -24.5 17.499s-15 8.66602 -21 9.99902c-9.33301 2 -21.166 4 -35.499 6s-28.833 4.16699 -43.5 6.5s-28.167 4.83301 -40.5 7.5
s-21.5 5.66699 -27.5 9c-13.333 6 -25.833 13.167 -37.5 21.5s-23.167 17.166 -34.5 26.499l-34 27.5c-11.333 9 -23.333 17.167 -36 24.5h-89v103h1312v-103h-940v0z" />
    <glyph glyph-name="bn_ba" unicode="&#x9ac;" horiz-adv-x="909" 
d="M758 -18l-56.0029 76.999c-18.667 58 -45.667 111.167 -81 159.5s-76.166 90.5 -122.499 126.5s-97 64.833 -152 86.5s-111.833 34.834 -170.5 39.501l-131 186c96.667 68 194.334 128.333 293.001 181s204.334 97 317.001 133v69h-691v103h982v-103h-188v-1058z
M654.997 806.999c-68.667 -20.667 -136.5 -49.5 -203.5 -86.5s-130.833 -76.5 -191.5 -118.5c85.333 -36 160 -81.167 224 -135.5s121 -120.5 171 -198.5v539v0z" />
    <glyph glyph-name="bn_bha" unicode="&#x9ad;" horiz-adv-x="1094" 
d="M-30 1143h1158v-103h-1158v103zM627 731c46 25.333 84.0039 54.8389 114.004 88.5059s52.667 70.5 68 110.5c39.333 -21.333 73.166 -45.833 101.499 -73.5s51.666 -57.167 69.999 -88.5s31.833 -64.333 40.5 -99s13 -69.334 13 -104.001c0 -52 -9 -102.5 -27 -151.5
s-44.333 -92.5 -79 -130.5s-76.834 -68.667 -126.501 -92s-105.834 -35 -168.501 -35c-62.667 5.33301 -118.667 19.833 -168 43.5s-93.5 54.167 -132.5 91.5s-73.5 80.5 -103.5 129.5s-57.167 101.833 -81.5 158.5s-46.5 116 -66.5 178l-58 187l65 -20
c15.333 -46 32.333 -92.833 51 -140.5s40 -93.834 64 -138.501s50.833 -86.834 80.5 -126.501s63.167 -74.334 100.5 -104.001s79 -53 125 -70s97 -25.5 153 -25.5c36 0 70.667 8.5 104 25.5s62.5 39.167 87.5 66.5s45 58.333 60 93s22.5 70 22.5 106
c0 28 -4.83301 55.167 -14.5 81.5s-26.167 51.166 -49.5 74.499c-12 -25.333 -28.167 -49.666 -48.5 -72.999s-44.333 -44 -72 -62s-58.5 -32.5 -92.5 -43.5s-70.667 -16.5 -110 -16.5c-28 0 -55 4.83301 -81 14.5s-49.333 23.667 -70 42s-37.167 40.666 -49.5 66.999
s-18.5 56.166 -18.5 89.499c0 48.667 15 87.167 45 115.5s74.333 42.5 133 42.5c16.667 0 32 -3.83301 46 -11.5s26.167 -17.834 36.5 -30.501s18.333 -26.667 24 -42s8.5 -31 8.5 -47c0 -16.667 -3.33301 -32.667 -10 -48s-17 -28.666 -31 -39.999l45 8v0z" />
    <glyph glyph-name="bn_ma" unicode="&#x9ae;" horiz-adv-x="1008" 
d="M844 -6l-43.001 46.999c-4 38 -15.167 76.833 -33.5 116.5s-40.5 76.334 -66.5 110.001s-54.5 62.334 -85.5 86.001s-61.5 38.167 -91.5 43.5c-10 -10.667 -21.333 -21.334 -34 -32.001s-26.5 -20.334 -41.5 -29.001s-31.167 -15.667 -48.5 -21s-35.333 -8 -54 -8
c-55.333 0 -97.166 16.667 -125.499 50s-42.5 76 -42.5 128c0 26.667 6.33301 50.667 19 72s29 39.333 49 54s42.333 26 67 34s48.667 12 72 12c14.667 0 28.667 -1.5 42 -4.5s25.333 -8.16699 36 -15.5c0 68 -20 125 -60 171s-100 75 -180 87c-30 8 -54 15.833 -72 23.5
s-33.333 16.834 -46 27.501s-23.5 23.5 -32.5 38.5s-19.5 33.5 -31.5 55.5h-71v103h1064v-103h-190v-1046zM269.999 1040c38.667 -25.333 76.167 -54.667 112.5 -88s68.666 -69.833 96.999 -109.5s51 -82 68 -127s25.5 -91.833 25.5 -140.5v-22
c0 -3.33301 -0.166992 -6.83301 -0.5 -10.5s-0.833008 -7.16699 -1.5 -10.5c30 -30 60.333 -62.5 91 -97.5s58.334 -70.5 83.001 -106.5v712h-475z" />
    <glyph glyph-name="bn_ya" unicode="&#x9af;" horiz-adv-x="971" 
d="M822 -10l-45.999 45.001c-17.333 46 -41.5 92.167 -72.5 138.5s-67 88.333 -108 126s-85.833 68.167 -134.5 91.5s-99.334 35 -152.001 35h-22c-3.33301 0 -6.83301 -0.166992 -10.5 -0.5s-7.16699 -0.833008 -10.5 -1.5l-139 172c22 26 45.5 50.5 70.5 73.5
s50.667 45.167 77 66.5l80 63l79.5 63c-16.667 15.333 -35.5 28 -56.5 38s-42.833 18.5 -65.5 25.5s-45.834 13.5 -69.501 19.5s-46.667 13.167 -69 21.5s-43.666 18.166 -63.999 29.499s-38.5 26 -54.5 44h-85v103h1029v-103h-177v-1050zM326.001 1040
c26.667 -16 51.501 -32.167 74.501 -48.5s45.167 -33.833 66.5 -52.5s42 -39 62 -61s40.333 -46.333 61 -73c-22 -22.667 -43.167 -43.5 -63.5 -62.5l-60.5 -57l-60 -59.5c-20 -20.667 -40.667 -43.667 -62 -69c36 -9.33301 71.5 -24.333 106.5 -45s68.5 -44.5 100.5 -71.5
s62.167 -56.333 90.5 -88s54.166 -63.167 77.499 -94.5v782h-393z" />
    <glyph glyph-name="bn_ra" unicode="&#x9b0;" horiz-adv-x="907" 
d="M758 2l-39 36.999c-21.333 54 -49.5 107.333 -84.5 160s-75.5 99.667 -121.5 141s-97 75 -153 101s-116 39.333 -180 40l-133 183c94 68.667 191.667 127.334 293 176.001s206.333 93 315 133v67h-685v103h968v-103h-180v-1038zM258 196.999
c0 12 2.49707 23.9971 7.49707 35.9971s11.667 22.833 20 32.5s18.166 17.334 29.499 23.001s23 8.5 35 8.5h10c14 0 27.333 -3 40 -9s23.834 -13.833 33.501 -23.5s17.334 -21 23.001 -34s8.5 -26.5 8.5 -40.5c0 -12.667 -2.5 -25.167 -7.5 -37.5s-11.667 -23.5 -20 -33.5
s-18.333 -18 -30 -24s-24.5 -9 -38.5 -9s-27.667 2.83301 -41 8.5s-25.166 13.334 -35.499 23.001s-18.666 21.334 -24.999 35.001s-9.5 28.5 -9.5 44.5zM654.997 820.996c-38.667 -10.667 -75.166 -23.1641 -109.499 -37.4971s-67.5 -30.333 -99.5 -48
s-63.333 -36.834 -94 -57.501l-94 -66c39.333 -14.667 78.166 -34.334 116.499 -59.001s74.833 -52.667 109.5 -84s66.5 -65.333 95.5 -102s54.167 -74.334 75.5 -113.001v567v0z" />
    <glyph glyph-name="bn_la" unicode="&#x9b2;" horiz-adv-x="1112" 
d="M947 -10l-102.99 100.003v567c-1.33301 16.667 -6.16602 33 -14.499 49s-19 30 -32 42s-27.833 21.667 -44.5 29s-34.334 11 -53.001 11c-24.667 -4 -42.334 -16.167 -53.001 -36.5s-16 -42.833 -16 -67.5c0 -21.333 3.33301 -41 10 -59l-43 -17
c-10.667 28.667 -22.334 54 -35.001 76s-27.5 40.5 -44.5 55.5s-37.333 27 -61 36s-51.834 14.833 -84.501 17.5c-20.667 0 -41.834 -3.16699 -63.501 -9.5s-41.5 -16.833 -59.5 -31.5s-32.833 -34 -44.5 -58s-17.5 -53.333 -17.5 -88c0 -20 3.66699 -38 11 -54
s17.166 -29.833 29.499 -41.5s26.666 -21.167 42.999 -28.5s33.833 -12.333 52.5 -15c-10.667 11.333 -18.167 23.166 -22.5 35.499s-6.5 25.166 -6.5 38.499c0 16.667 3.16699 32.167 9.5 46.5s15.166 26.833 26.499 37.5s24.833 19 40.5 25s33.167 9 52.5 9
c17.333 0 33.166 -5.16699 47.499 -15.5s26.5 -23.666 36.5 -39.999s17.667 -34.666 23 -54.999s8 -40.833 8 -61.5c0 -19.333 -4.5 -36.333 -13.5 -51s-21 -27 -36 -37s-31.833 -17.5 -50.5 -22.5s-37.334 -7.5 -56.001 -7.5h-6c-41.333 0 -79.5 7.16699 -114.5 21.5
s-65.167 34.333 -90.5 60s-45 56.5 -59 92.5s-21 75.667 -21 119c0 34 5.83301 67.667 17.5 101s27.834 63.166 48.501 89.499s45.167 47.833 73.5 64.5s59.166 25 92.499 25c44 0 85.333 -11.667 124 -35s69.667 -54 93 -92c0 4 2.83301 12 8.5 24s14 24.667 25 38
s24.667 25.666 41 36.999s35.166 18.666 56.499 21.999c24.667 0 45.667 -5.66699 63 -17s32.5 -25.5 45.5 -42.5s24.333 -35.5 34 -55.5s19.5 -39 29.5 -57v276h-874v103h1177v-103h-200v-1050z" />
    <glyph glyph-name="bn_sha" unicode="&#x9b6;" horiz-adv-x="1040" 
d="M924 -8l-103.007 93.998v653c0 9.33301 -3 21.666 -9 36.999s-14.167 32 -24.5 50s-22 36 -35 54s-26.333 34.333 -40 49s-27.5 26.667 -41.5 36s-26.667 14 -38 14c-16 0 -31 -2.33301 -45 -7s-26.167 -10.667 -36.5 -18s-18.5 -16 -24.5 -26s-9 -20.333 -9 -31
c14.667 -9.33301 31.167 -21.166 49.5 -35.499s35.5 -30.166 51.5 -47.499s29.5 -35.166 40.5 -53.499s16.5 -36.166 16.5 -53.499c0 -19.333 -3.16699 -37.5 -9.5 -54.5s-15.666 -31.833 -27.999 -44.5s-27.166 -22.667 -44.499 -30s-37 -11 -59 -11
c-13.333 0 -27.166 2.66699 -41.499 8s-28.166 12.666 -41.499 21.999s-25.666 20.166 -36.999 32.499s-20.666 25.833 -27.999 40.5c-5.33301 -17.333 -13.666 -32.333 -24.999 -45s-24.666 -23.334 -39.999 -32.001s-32 -15.167 -50 -19.5s-36.333 -6.5 -55 -6.5
c-15.333 0 -29.833 4.16699 -43.5 12.5s-25.834 19.5 -36.501 33.5s-19.5 29.833 -26.5 47.5s-11.167 35.834 -12.5 54.501c4 24 11.667 46.167 23 66.5s25 39 41 56s33.667 32.167 53 45.5s39 25 59 35c-7.33301 13.333 -15.5 27.166 -24.5 41.499s-19.333 27.333 -31 39
s-24.5 21.334 -38.5 29.001s-29.667 11.5 -47 11.5h-133l-102 104h223c26.667 0 51.5 -5.83301 74.5 -17.5s43.833 -26.667 62.5 -45s34.834 -39 48.501 -62s24.834 -45.833 33.501 -68.5c12 26.667 25 49.834 39 69.501s30.667 37 50 52s42.166 28.333 68.499 40
s57.833 22.834 94.5 33.501c15.333 -3.33301 31.5 -11.666 48.5 -24.999s33.833 -29.833 50.5 -49.5s33 -41.5 49 -65.5s31.333 -48.167 46 -72.5l41 -71l33 -60.5l-39 284v240c9.33301 -8 18.666 -16.5 27.999 -25.5s17.833 -18.5 25.5 -28.5s14 -20.833 19 -32.5
s7.5 -23.834 7.5 -36.501c0 -16.667 5.5 -28.834 16.5 -36.501s28.833 -15.167 53.5 -22.5h137v-103h-184v-1048z" />
    <glyph glyph-name="bn_ssa" unicode="&#x9b7;" horiz-adv-x="958" 
d="M810 2c-23.333 20.667 -42.668 44.6689 -58.001 72.002l-45 80c-14 32 -37.5 64.333 -70.5 97s-70.167 62.5 -111.5 89.5s-83.833 49 -127.5 66s-83.167 25.5 -118.5 25.5l-23 -2l-139 180l77 66l76 67.5l77 65.5c26 21.333 53 41.666 81 60.999
c-20.667 14.667 -43.5 23.834 -68.5 27.501s-50.5 5.66699 -76.5 6l-77.5 1c-25.667 0.333008 -49.167 4.5 -70.5 12.5c-13.333 4.66699 -24 11.667 -32 21s-15.167 19.666 -21.5 30.999l-19 35.5c-6.33301 12.333 -14.166 24.166 -23.499 35.499h-69v103h1023v-103h-183
v-1038zM308.998 1040l63.4971 -42.999c21.667 -14.667 42.834 -30.167 63.501 -46.5s40.334 -33.5 59.001 -51.5s35.334 -37 50.001 -57c10 -8 22.167 -18.667 36.5 -32l44 -39.5c15 -13 29.667 -24.833 44 -35.5s26.833 -17.334 37.5 -20.001v325h-398zM706.995 590.003
c-24 28 -50.499 56.168 -79.499 84.501s-57.833 52.833 -86.5 73.5c-19.333 -10.667 -37.833 -23.334 -55.5 -38.001s-34.667 -30.334 -51 -47.001l-48 -51c-15.667 -17.333 -31.167 -33.666 -46.5 -48.999c72.667 -34.667 138.667 -75.667 198 -123
s115.666 -105.333 168.999 -174v324v0z" />
    <glyph glyph-name="bn_sa" unicode="&#x9b8;" horiz-adv-x="1073" 
d="M902 -10l-102.999 115.997v443c-5.33301 14.667 -11.666 30.334 -18.999 47.001s-16 32.167 -26 46.5s-21.667 26.666 -35 36.999s-28.333 16.5 -45 18.5c-22 0 -40.667 -5.33301 -56 -16c-20.667 -18.667 -39.167 -39.5 -55.5 -62.5s-31.833 -46.333 -46.5 -70
l-43.5 -68.5c-14.333 -22 -29.833 -41.667 -46.5 -59s-35 -31.166 -55 -41.499s-43.333 -15.5 -70 -15.5c-28 0 -52.667 7.66699 -74 23s-40.5 34.333 -57.5 57s-32.5 47 -46.5 73l-39 72l68 65c2.66699 -11.333 6.66699 -24.333 12 -39s12.166 -29 20.499 -43
s18.166 -26.167 29.499 -36.5s24 -16.5 38 -18.5c16.667 0 33.667 9 51 27l133 178c-0.666992 31.333 -5 60.833 -13 88.5s-20 51.667 -36 72s-36.5 36.5 -61.5 48.5s-54.833 18 -89.5 18c-32.667 0 -58.5 1.33301 -77.5 4s-34.667 7.33398 -47 14.001
s-22.833 15.834 -31.5 27.501s-19 26.5 -31 44.5h-79v103h1138v-103h-206v-1050zM356.001 1040c18.667 -10 35.999 -22.8311 51.999 -38.498s29.833 -33.334 41.5 -53.001s20.834 -40.5 27.501 -62.5s10 -44.333 10 -67c0 -16 -1.33301 -29.667 -4 -41
c10.667 5.33301 21.5 12.166 32.5 20.499s22.333 16.5 34 24.5s23.5 14.833 35.5 20.5s24.667 8.5 38 8.5c21.333 0 39.833 -5.33301 55.5 -16s30 -23.667 43 -39s25.667 -31.5 38 -48.5s25.5 -31.5 39.5 -43.5v335h-443z" />
    <glyph glyph-name="bn_ha" unicode="&#x9b9;" horiz-adv-x="860" 
d="M979 -172c-62.667 62.667 -126.337 120.335 -191.004 173.002s-130.667 99.5 -198 140.5s-136 75.667 -206 104s-142 49.5 -216 63.5l-113 277c44 -32 96.5 -55.667 157.5 -71s125.5 -23 193.5 -23c26.667 4.66699 55.5 12.167 86.5 22.5s60.333 23.666 88 39.999
s51.667 35.833 72 58.5s32.833 49 37.5 79c0 20.667 -5 40 -15 58s-23.333 33.667 -40 47s-35.667 23.833 -57 31.5s-43.333 11.5 -66 11.5c-16.667 0 -33 -2 -49 -6c-1.33301 -24.667 -7.66602 -48.334 -18.999 -71.001s-26 -42.834 -44 -60.501s-38.667 -32 -62 -43
s-47.333 -17.167 -72 -18.5c-16.667 0.666992 -32.5 4.16699 -47.5 10.5s-28 14.833 -39 25.5s-19.833 23.167 -26.5 37.5s-10 29.5 -10 45.5c2 18.667 7.66699 37 17 55s23.333 35.167 42 51.5s42.334 32.166 71.001 47.499s63.334 30 104.001 44c2.66699 2 4 5 4 9
c0 7.33301 -3.33301 15 -10 23s-14.667 15.333 -24 22s-18.833 12.5 -28.5 17.5s-17.5 8.5 -23.5 10.5h-335v103h960v-103h-480c3.33301 -6.66699 6 -13.667 8 -21s4.16699 -14.666 6.5 -21.999s5.33301 -14.166 9 -20.499s8.83398 -11.5 15.501 -15.5c34 -2 69 -12 105 -30
s68.667 -41.167 98 -69.5s53.333 -60.333 72 -96s28 -72.5 28 -110.5c0 -68 -22.833 -126.5 -68.5 -175.5s-119.5 -93.5 -221.5 -133.5l10 -18c44 -20.667 85.833 -44.667 125.5 -72s77.5 -56.5 113.5 -87.5s70.5 -63.667 103.5 -98l95.5 -103.5l39 -139v0z" />
    <glyph glyph-name="bn_nukta" unicode="&#x9bc;" horiz-adv-x="0" 
d="M-424 -250c-22 -44.667 -56.001 -67 -102.001 -67c-17.333 0 -33.333 2.83301 -48 8.5s-27.334 13.834 -38.001 24.501s-19.167 23.167 -25.5 37.5s-9.5 30.166 -9.5 47.499v6c0 14.667 3.16699 29.167 9.5 43.5s15 27.166 26 38.499s23.833 20.333 38.5 27
s30.334 10 47.001 10c14.667 0 29 -3 43 -9s26.333 -14.167 37 -24.5s19.334 -22.666 26.001 -36.999s10 -29.5 10 -45.5c0 -21.333 -4.66699 -41.333 -14 -60z" />
    <glyph glyph-name="bn_avagraha" unicode="&#x9bd;" horiz-adv-x="860" 
d="M465 989c2 -6 3.49902 -11.332 4.49902 -15.999s4.16699 -8.66699 9.5 -12c33.333 -2.66699 67.666 -12.834 102.999 -30.501s67.5 -40.5 96.5 -68.5s52.833 -60.167 71.5 -96.5s28 -74.5 28 -114.5c0 -34 -5.33301 -65.5 -16 -94.5s-27.5 -55.833 -50.5 -80.5
s-52.667 -47.667 -89 -69s-79.833 -41.666 -130.5 -60.999c46.667 -25.333 90.5 -52.833 131.5 -82.5s79.833 -60.667 116.5 -93s71.5 -65.666 104.5 -99.999l95.5 -103.5l39 -139c-51.333 56.667 -107.666 110.667 -168.999 162s-126.333 98 -195 140
s-140.5 78.333 -215.5 109s-152.167 54 -231.5 70l-113 277c44 -32 96.5 -55.667 157.5 -71s125.5 -23 193.5 -23c26.667 4.66699 55.5 12.167 86.5 22.5s60.333 23.666 88 39.999s51.667 35.833 72 58.5s32.833 49 37.5 79c0 20.667 -5 40 -15 58s-23.333 33.667 -40 47
s-35.667 23.833 -57 31.5s-43.333 11.5 -66 11.5c-16.667 0 -33 -2 -49 -6c-1.33301 -24.667 -7.66602 -48.334 -18.999 -71.001s-26 -42.834 -44 -60.501s-38.667 -32 -62 -43s-47.333 -17.167 -72 -18.5c-14.667 0 -29.167 2.33301 -43.5 7s-27.333 11.834 -39 21.501
s-21 22 -28 37s-10.5 32.833 -10.5 53.5c0 22.667 7.5 45.334 22.5 68.001s34 43.167 57 61.5s48.167 33.666 75.5 45.999s53 19.833 77 22.5c2.66699 2 4 5 4 9c0 7.33301 -3.33301 15 -10 23s-14.667 15.333 -24 22s-18.833 12.5 -28.5 17.5s-17.5 8.5 -23.5 10.5h-325
v103h376c18.667 0 34.667 -4.66699 48 -14s24 -20 32 -32s13.833 -23.5 17.5 -34.5s5.5 -18.5 5.5 -22.5l16 -51v0z" />
    <glyph glyph-name="bn_aakaar" unicode="&#x9be;" horiz-adv-x="414" 
d="M261 -35l-103.003 107.001v776c0 26 -4.83301 50.667 -14.5 74s-23 43.666 -40 60.999s-36.667 31.166 -59 41.499s-46.166 15.5 -71.499 15.5h-139v103c20.667 1.33301 38.334 2.66602 53.001 3.99902s29.667 2 45 2c9.33301 0 19.333 -0.5 30 -1.5
s23.334 -3.16699 38.001 -6.5c26 -0.666992 49.833 -10 71.5 -28s41 -40.333 58 -67s31.333 -55 43 -85s20.5 -57.333 26.5 -82c-12 70.667 -22 143.334 -30 218.001s-13 151.334 -15 230.001l41 -33c3.33301 -28 9 -55.333 17 -82s22.667 -49.667 44 -69h184v-103h-179
v-1075z" />
    <glyph glyph-name="bn_ikaar" unicode="&#x9bf;" horiz-adv-x="389" 
d="M893 1386c-54 36 -113.169 64.1689 -177.502 84.502s-132.833 30.5 -205.5 30.5c-41.333 0 -80 -7.33301 -116 -22s-68.833 -34.5 -98.5 -59.5s-55.167 -53.667 -76.5 -86s-37.666 -66.5 -48.999 -102.5l39 -88h270v-103h-233v-1058l-103 96v962h-183v103h192l-91 96
c-9.33301 9.33301 -14 25 -14 47c14 56.667 32.167 104.334 54.5 143.001s49.5 70.5 81.5 95.5s69.167 44.333 111.5 58s90.833 24.167 145.5 31.5c56 -4 111.833 -13.333 167.5 -28s109.334 -34.334 161.001 -59.001s100.667 -54.334 147 -89.001
s88.5 -74.334 126.5 -119.001l23 -66l-172 133v0z" />
    <glyph glyph-name="bn_iikaar" unicode="&#x9c0;" horiz-adv-x="414" 
d="M228 -10l-102.996 102.006v948h-174v103h174c-10 68 -31.667 128.167 -65 180.5s-74.666 96.166 -123.999 131.499s-104.5 62.166 -165.5 80.499s-123.833 27.5 -188.5 27.5c-13.333 0 -30.333 -1 -51 -3s-42.5 -4.83301 -65.5 -8.5s-46 -8.33398 -69 -14.001
s-43.833 -12.334 -62.5 -20.001s-33.834 -16.5 -45.501 -26.5s-17.5 -21 -17.5 -33c0 -11.333 7.66699 -20.333 23 -27s35 -11.834 59 -15.501s50.833 -6.5 80.5 -8.5s59 -3.5 88 -4.5s56 -2.33301 81 -4s44.833 -4.16699 59.5 -7.5c27.333 0 53 -5.5 77 -16.5
s44.833 -25.667 62.5 -44s31.667 -39.5 42 -63.5s15.5 -49 15.5 -75c0 -10.667 -0.666992 -21 -2 -31s-4.33301 -20.333 -9 -31h-108l32 31c10 10 15.667 23.667 17 41v2c0 15.333 -6.33301 27.833 -19 37.5s-30.167 17.167 -52.5 22.5s-48.833 9 -79.5 11
s-64.334 3 -101.001 3c-22.667 0 -44.167 0.666992 -64.5 2s-40.166 4.33301 -59.499 9s-39 11.5 -59 20.5s-41 21.167 -63 36.5c-23.333 13.333 -40.333 30 -51 50s-16 41.333 -16 64c0 66.667 33 117.5 99 152.5s163.333 52.5 292 52.5c71.333 0 141.666 -13 210.999 -39
s132.166 -62.333 188.499 -109s103.666 -101.834 141.999 -165.501s62.166 -133.167 71.499 -208.5h233v-103h-233v-1050z" />
    <glyph glyph-name="bn_ukaar" unicode="&#x9c1;" 
d="M59 -365c-12.667 16.667 -29.6699 36.1699 -51.0029 58.5029s-45 45.166 -71 68.499s-53.5 46.333 -82.5 69s-57.5 42.667 -85.5 60c-34.667 -32 -65.667 -57.667 -93 -77s-57.333 -29 -90 -29c-28 0 -53.833 3 -77.5 9s-44 15.333 -61 28s-30.167 28.167 -39.5 46.5
s-14 40.166 -14 65.499c0 22.667 5 43.5 15 62.5s23.5 35.5 40.5 49.5s36.667 24.833 59 32.5s45.5 11.5 69.5 11.5c18 -1.33301 32.667 -3 44 -5s22 -5 32 -9s20.5 -9.33301 31.5 -16l42.5 -25c0.666992 4 1.33398 8.33301 2.00098 13s1.33398 12.5 2.00098 23.5
s1.16699 26.5 1.5 46.5s0.5 47 0.5 81l51 -37c28.667 -38.667 43 -75.667 43 -111c0 -16 -0.166992 -28.833 -0.5 -38.5s-0.5 -16.834 -0.5 -21.501c0 -5.33301 -0.166992 -9 -0.5 -11s-0.5 -3.66699 -0.5 -5c0 -3.33301 0.333008 -5.5 1 -6.5s1.66699 -2.16699 3 -3.5
c46 -36 88.833 -75.167 128.5 -117.5s71.834 -89.833 96.501 -142.5l17 -49l-13 -21v0zM-328.003 -42.9971c-4.66699 6 -8.99805 10.999 -12.998 14.999s-9.33301 7.33301 -16 10s-15.334 4.66699 -26.001 6s-25 2 -43 2c-25.333 0 -46.333 -5.83301 -63 -17.5
s-25 -29.167 -25 -52.5c0 -16 7.66699 -25.833 23 -29.5s35.666 -5.5 60.999 -5.5c12 1.33301 24.167 3.83301 36.5 7.5s23.5 8.33398 33.5 14.001s18.167 12.167 24.5 19.5s9.5 15 9.5 23c0 1.33301 -0.333008 2.5 -1 3.5s-1 2.5 -1 4.5z" />
    <glyph glyph-name="bn_uukaar" unicode="&#x9c2;" 
d="M-129 -233c-10.667 -7.33301 -24.1689 -14.333 -40.502 -21s-34 -12.667 -53 -18s-38.5 -9.5 -58.5 -12.5s-39 -4.5 -57 -4.5c-21.333 0 -41.5 4.5 -60.5 13.5s-36 22 -51 39s-26.833 37.333 -35.5 61s-13 50.167 -13 79.5c0 22.667 5.83301 43.834 17.5 63.501
s26.667 36.834 45 51.501s39.333 26.167 63 34.5s47.5 12.5 71.5 12.5c19.333 0 39 -3.66699 59 -11l-10 99l31 -24.5c10.667 -8.33301 20.5 -18 29.5 -29s16.5 -23.5 22.5 -37.5s9 -30.333 9 -49s-4.66699 -31.667 -14 -39c-29.333 7.33301 -58.666 11 -87.999 11
c-14 0 -29.667 -1.66699 -47 -5s-33.666 -8.83301 -48.999 -16.5s-28.166 -17.834 -38.499 -30.501s-15.5 -28.334 -15.5 -47.001c0 -10.667 3 -20.334 9 -29.001s13.667 -16.167 23 -22.5s20.166 -11.166 32.499 -14.499s24.5 -5 36.5 -5c32 4 62.833 9.5 92.5 16.5
s56.834 19.167 81.501 36.5l276 -234c3.33301 -4 6.66602 -9.83301 9.99902 -17.5s6.5 -16.167 9.5 -25.5s5.33301 -19 7 -29s2.5 -19.333 2.5 -28c0 -3.33301 -0.333008 -6.33301 -1 -9s-1 -5 -1 -7l-295 248v0z" />
    <glyph glyph-name="bn_rikaar" unicode="&#x9c3;" 
d="M-115 -469c-7.33301 9.33301 -17.833 19.333 -31.5 30l-46.5 36c-62.667 48 -127 91.833 -193 131.5l-202 117.5l297 217l37 103l84 -166l-225 -160c15.333 -12.667 33.5 -26.167 54.5 -40.5l66 -44l68 -46.5c22.333 -16 42.833 -32.333 61.5 -49
s34.167 -33.5 46.5 -50.5s19.833 -34.167 22.5 -51.5l6 -76l-45 49v0z" />
    <glyph glyph-name="bn_rrikaar" unicode="&#x9c4;" horiz-adv-x="0" 
d="M-375 -487c-10 12 -26.999 27.502 -50.999 46.502s-51.333 39.167 -82 60.5s-62.667 42.5 -96 63.5s-64 39.167 -92 54.5l55 -109l-225 -159c20 -12.667 44 -28.834 72 -48.501l85 -61.5l79.5 -61.5c24.333 -19.667 43.166 -35.834 56.499 -48.501
c14 -18 22.667 -39 26 -63l6 -76l-45 49c-7.33301 9.33301 -17.833 19.333 -31.5 30l-46.5 36c-64.667 46 -129.5 89.167 -194.5 129.5l-200.5 120.5l297 217l25 69l-111 66l297 217l37 102l84 -165l-225 -160c20 -12 44 -27.833 72 -47.5l84.5 -62l79.5 -62
c24.667 -19.667 43.667 -35.5 57 -47.5c14 -18 22.667 -39.333 26 -64l6 -76l-45 50v0z" />
    <glyph glyph-name="bn_ekaar" unicode="&#x9c7;" horiz-adv-x="604" 
d="M643 1042c-74 -16.667 -139.172 -43.498 -195.505 -80.498s-103.333 -82.5 -141 -136.5s-66 -116 -85 -186s-28.5 -146.333 -28.5 -229c0 -34 4.83301 -68.667 14.5 -104s23.834 -67.166 42.501 -95.499s41.834 -51.666 69.501 -69.999s59.834 -27.5 96.501 -27.5h12
c-20.667 19.333 -35 36.5 -43 51.5s-14 33.167 -18 54.5c0 15.333 3.16699 29.666 9.5 42.999s14.833 25.166 25.5 35.499s23 18.666 37 24.999s28.667 10.166 44 11.499c38 -3.33301 69.667 -18 95 -44s38 -60.667 38 -104c0 -16.667 -4.66699 -34 -14 -52
s-22.166 -34.5 -38.499 -49.5s-35.333 -27.333 -57 -37s-44.5 -14.5 -68.5 -14.5c-42 0 -79.833 7.66699 -113.5 23s-63.5 36.166 -89.5 62.499s-48.167 56.833 -66.5 91.5s-33.5 71.5 -45.5 110.5s-20.833 79 -26.5 120s-8.5 80.5 -8.5 118.5
c0 40.667 5.33301 82.334 16 125.001s25.334 84.667 44.001 126s40.5 81.5 65.5 120.5s52.167 75.5 81.5 109.5h-319v103h667v-101v0z" />
    <glyph glyph-name="bn_aikaar" unicode="&#x9c8;" horiz-adv-x="592" 
d="M662 1040c-11.333 0.666992 -21.335 1 -30.002 1h-22h-31h-19h-9c-3.33301 0 -7.33301 -0.333008 -12 -1c-42.667 0 -82.167 -9.16699 -118.5 -27.5s-69.166 -42.666 -98.499 -72.999s-55.5 -65.333 -78.5 -105s-42.167 -81 -57.5 -124s-27 -86.167 -35 -129.5
s-12 -83.666 -12 -120.999c0 -57.333 4.33301 -105.166 13 -143.499s21.834 -70.166 39.501 -95.499s40.334 -45.5 68.001 -60.5s60.5 -28.167 98.5 -39.5c-4.66699 8 -9.33398 15.167 -14.001 21.5s-9 13.166 -13 20.499s-7.33301 15.166 -10 23.499s-4 18.5 -4 30.5
c0 13.333 3 26.5 9 39.5s14.333 24.667 25 35s23.667 18.666 39 24.999s32 9.5 50 9.5c18.667 0 36.5 -4 53.5 -12s31.667 -18.5 44 -31.5s22.166 -28 29.499 -45s11 -34.833 11 -53.5c0 -20.667 -5.66699 -40.667 -17 -60s-26 -36.5 -44 -51.5s-38.5 -27 -61.5 -36
s-45.833 -13.5 -68.5 -13.5c-61.333 4 -114 23 -158 57s-80.5 76.833 -109.5 128.5s-50.333 108.667 -64 171s-20.5 124.166 -20.5 185.499c0 40 6 80.833 18 122.5s27.833 82.834 47.5 123.501s42.5 80.5 68.5 119.5s53 75.5 81 109.5h-280v103h390
c7.33301 4 14 9.5 20 16.5s9 15.833 9 26.5c0 20.667 -7.16699 37.167 -21.5 49.5s-33.333 22.333 -57 30s-50.667 14 -81 19l-92.5 16c-31.333 5.66699 -62.166 12.667 -92.499 21s-57.333 20.166 -81 35.499s-42.667 34.666 -57 57.999s-21.5 52.666 -21.5 87.999
c0 17.333 3.33301 33.833 10 49.5s17 29.167 31 40.5l35 -34c-8 -4.66699 -14 -11.167 -18 -19.5s-6 -17.166 -6 -26.499c0 -21.333 5.66699 -38 17 -50s26.833 -20.833 46.5 -26.5s42.5 -9 68.5 -10s53.667 -1.5 83 -1.5c17.333 0 34.333 -0.166992 51 -0.5
s33.667 -2.16602 51 -5.49902c30 0 59.5 -6.5 88.5 -19.5s54.833 -30.5 77.5 -52.5s41 -47.333 55 -76s21 -59 21 -91c0 -14 -1.33301 -26.333 -4 -37h170v-103v0z" />
    </font>
</defs>
</svg>
